<svg id="visual" viewBox="0 0 900 600" width="900" height="600" xmlns="http://www.w3.org/2000/svg" xmlns:xlink="http://www.w3.org/1999/xlink" version="1.1"><rect x="0" y="0" width="900" height="600" fill="#966B9D"></rect><path d="M0 518L25 513.7C50 509.3 100 500.7 150 500.7C200 500.7 250 509.3 300 498.7C350 488 400 458 450 454.3C500 450.7 550 473.3 600 477.2C650 481 700 466 750 456.3C800 446.7 850 442.3 875 440.2L900 438L900 601L875 601C850 601 800 601 750 601C700 601 650 601 600 601C550 601 500 601 450 601C400 601 350 601 300 601C250 601 200 601 150 601C100 601 50 601 25 601L0 601Z" fill="#f49d0c"></path><path d="M0 526L25 518.8C50 511.7 100 497.3 150 489.7C200 482 250 481 300 489.7C350 498.3 400 516.7 450 516.5C500 516.3 550 497.7 600 497.2C650 496.7 700 514.3 750 517.2C800 520 850 508 875 502L900 496L900 601L875 601C850 601 800 601 750 601C700 601 650 601 600 601C550 601 500 601 450 601C400 601 350 601 300 601C250 601 200 601 150 601C100 601 50 601 25 601L0 601Z" fill="#f68b08"></path><path d="M0 522L25 528.2C50 534.3 100 546.7 150 547.3C200 548 250 537 300 537.5C350 538 400 550 450 550.3C500 550.7 550 539.3 600 532.2C650 525 700 522 750 525.7C800 529.3 850 539.7 875 544.8L900 550L900 601L875 601C850 601 800 601 750 601C700 601 650 601 600 601C550 601 500 601 450 601C400 601 350 601 300 601C250 601 200 601 150 601C100 601 50 601 25 601L0 601Z" fill="#f7770f"></path></svg>