<svg id="visual" viewBox="0 0 900 600" width="900" height="600" xmlns="http://www.w3.org/2000/svg" xmlns:xlink="http://www.w3.org/1999/xlink" version="1.1"><rect width="900" height="600" fill="#f49d0c"></rect><g><g transform="translate(855 182)"><path d="M62.7 -57.5C77.2 -31.9 82 -6 79 22.4C76 50.8 65.2 81.8 44.9 90.6C24.6 99.4 -5.2 86 -36.3 72.2C-67.5 58.4 -100 44.3 -104.6 24C-109.2 3.6 -85.8 -23.1 -63.7 -50.5C-41.6 -77.9 -20.8 -106.1 1.7 -107.5C24.1 -108.8 48.2 -83.2 62.7 -57.5Z" stroke="#a36905" fill="none" stroke-width="20"></path></g><g transform="translate(138 320)"><path d="M43.1 -31.4C56.7 -17.3 69 0.6 65.9 15.3C62.7 29.9 44 41.2 26.9 45.6C9.7 49.9 -5.9 47.3 -19.4 40.6C-32.9 34 -44.4 23.4 -49.3 9.1C-54.3 -5.1 -52.8 -23 -43.5 -36.1C-34.2 -49.1 -17.1 -57.3 -1.2 -56.4C14.8 -55.4 29.5 -45.4 43.1 -31.4Z" stroke="#a36905" fill="none" stroke-width="20"></path></g><g transform="translate(386 119)"><path d="M62.9 -53.1C77.1 -32.4 81.1 -6.5 74.5 14.7C67.8 36 50.5 52.5 29.9 62.6C9.3 72.6 -14.6 76.2 -34.9 68.1C-55.3 60 -72.1 40.2 -79.1 16.2C-86.1 -7.8 -83.1 -35.9 -68.3 -56.7C-53.5 -77.6 -26.7 -91.3 -1.2 -90.3C24.4 -89.4 48.7 -73.8 62.9 -53.1Z" stroke="#a36905" fill="none" stroke-width="20"></path></g><g transform="translate(25 24)"><path d="M71.9 -57.7C87.1 -38.3 89 -8.8 83.7 20.8C78.3 50.4 65.6 80.1 44.2 89.5C22.8 98.9 -7.2 88.2 -32.5 73.7C-57.8 59.1 -78.4 40.9 -86.1 16.9C-93.7 -7 -88.4 -36.6 -71.9 -56.3C-55.4 -75.9 -27.7 -85.6 0.3 -85.9C28.4 -86.2 56.7 -77 71.9 -57.7Z" stroke="#a36905" fill="none" stroke-width="20"></path></g><g transform="translate(532 400)"><path d="M68.5 -54.9C83.2 -36.2 85.7 -8 80.2 19.1C74.6 46.3 61 72.4 37.4 87.6C13.8 102.8 -19.9 107 -40.1 93.4C-60.3 79.8 -66.9 48.3 -74.1 17C-81.2 -14.4 -88.7 -45.6 -76.5 -63.7C-64.2 -81.9 -32.1 -87 -2.6 -85C26.9 -82.9 53.8 -73.7 68.5 -54.9Z" stroke="#a36905" fill="none" stroke-width="20"></path></g><g transform="translate(812 580)"><path d="M47.5 -42C58.2 -24.3 61.5 -4.8 58.9 16.3C56.3 37.3 48 59.8 30 72.4C12 85 -15.7 87.6 -37 77.2C-58.2 66.8 -73 43.4 -77.1 19.4C-81.1 -4.7 -74.5 -29.4 -59.9 -48C-45.3 -66.5 -22.6 -78.8 -2.1 -77.1C18.3 -75.3 36.7 -59.6 47.5 -42Z" stroke="#a36905" fill="none" stroke-width="20"></path></g></g></svg>