<?xml version="1.0" encoding="utf-8" ?>
<svg xmlns="http://www.w3.org/2000/svg" xmlns:xlink="http://www.w3.org/1999/xlink" width="1204" height="1204">
	<path fill="#9EC1B1" d="M0 0L42.0319 0L1161.58 0L1204 0L1204 41.8827L1204 1162.18L1204 1204L1162.68 1204L41.3966 1204L0 1204L0 1161.99L0 42.071L0 0ZM0 1161.99L0 1204L41.3966 1204C34.7171 1202.22 28.2672 1200.16 22.337 1196.52C9.27632 1188.51 3.40124 1176.45 0 1161.99ZM0 0L0 42.071C1.4625 35.2332 3.51262 28.6848 7.16301 22.6696C15.3017 9.25868 27.2536 3.51293 42.0319 0L0 0ZM1204 1162.18C1200.58 1176.75 1194.59 1188.66 1181.5 1196.74C1175.68 1200.32 1169.27 1202.37 1162.68 1204L1204 1204L1204 1162.18ZM1161.58 0C1176.01 3.16063 1188.18 8.96656 1196.38 21.7981C1200.32 27.974 1202.5 34.7617 1204 41.8827L1204 0L1161.58 0Z"/>
	<path fill="#F7D2B0" d="M493.098 152.973C496.214 151.892 498.943 151.555 502.213 152.175C514.57 154.52 534.964 163.404 547.05 168.056C570.619 177.129 594.45 185.737 617.435 196.25C617.647 196.347 617.852 196.457 618.061 196.561C600.595 193.027 584.027 187.245 567.156 181.617C542.141 173.272 516.816 164.583 493.098 152.973Z"/>
	<path fill="#E7E1E0" d="M298.397 171.132C307.61 168.983 317.439 170.124 326.786 170.589Q326.964 187.591 327.464 204.586L326.878 301.262C326.883 314.628 325.974 328.737 326.975 342.008C322.261 342.481 317.161 342.26 312.463 341.647L299.853 341.501C299.521 320.578 299.756 299.614 299.719 278.686C299.121 271.474 299.35 264.154 299.2 256.92L298.574 220.103C298.452 203.867 297.587 187.33 298.397 171.132Z"/>
	<path fill="#FCFCFC" d="M299.786 252.713Q312.174 252.009 324.58 252.249C325.714 265.675 324.989 279.071 325.08 292.519C325.192 308.903 325.97 325.306 326.35 341.69C321.76 341.651 317.039 341.373 312.463 341.647L299.853 341.501C299.521 320.578 299.756 299.614 299.719 278.686C300.095 270.031 299.727 261.371 299.786 252.713Z"/>
	<path fill="#D94641" d="M836.434 484.645C847.388 484.427 868.486 483.028 878.365 485.325C880.99 485.936 883.177 486.998 885.107 488.903Q885.853 489.644 886.481 490.488Q887.11 491.331 887.607 492.258Q888.104 493.184 888.458 494.174Q888.813 495.164 889.018 496.196C890.547 503.732 889.511 513.255 889.502 520.985C889.482 536.987 889.627 553.017 889.308 569.015C889.232 572.838 889.019 576.608 888.431 580.389C883.034 586.225 877.532 587.483 869.76 587.781C860.162 588.15 850.532 587.397 840.933 587.814C810.128 589.133 779.42 588.872 748.597 588.909Q705.781 589.254 662.967 588.636C672.152 581.047 680.1 574.29 684.546 562.912C692.978 541.328 687.186 514.005 669.379 498.57C666.209 495.823 652.403 487.169 651.514 485.108C692.833 483.797 734.321 485.906 775.662 484.867C788.425 484.934 801.966 485.936 814.651 484.876Q825.548 485.253 836.434 484.645Z"/>
	<path fill="#F17C62" d="M367.247 593.294C367.203 592.194 367.256 590.909 367.03 589.839C366.647 588.03 365.277 587.45 363.577 587.048C361.058 586.454 357.51 587.17 354.873 587.315C347.034 587.745 328.864 589.218 322.81 584.024C319.485 581.171 318.609 575.241 318.392 571.119C317.588 555.878 318.357 540.364 318.287 525.088C318.247 516.129 317.061 506.234 318.135 497.393C318.439 494.892 319.244 491.919 321.074 490.074C329.609 481.47 361.407 484.416 373.58 484.555Q381.263 485.019 388.959 485.073C422.211 484.09 455.609 484.581 488.874 484.801C511.062 484.947 533.242 484.636 555.43 484.961C563.704 485.082 571.951 485.76 580.221 485.875C595.032 486.08 609.813 485.58 624.618 485.438C633.633 485.351 642.503 485.742 651.514 485.108C652.403 487.169 666.209 495.823 669.379 498.57C687.186 514.005 692.978 541.328 684.546 562.912C680.1 574.29 672.152 581.047 662.967 588.636C650.703 590.619 638.84 590.099 626.484 589.892Q610.167 589.63 593.848 589.54L475.599 589.092C456.369 589.081 436.576 588.092 417.403 589.211L417.39 588.419L416.739 588.462C404.571 589.18 391.974 588.48 379.774 588.278C376.35 588.221 370.919 587.328 367.735 588.195C367.13 590.007 367.147 591.397 367.247 593.294Z"/>
	<path fill="#669089" d="M782.864 995.261C788.16 992.248 792.543 987.731 796.293 982.993C826.951 990.856 858.428 994.316 888.976 1002.72C897.406 1005.04 906.337 1007.35 914.171 1011.29C919.182 1013.81 924.126 1017.43 926.937 1022.38C928.678 1025.44 929.551 1029.07 928.464 1032.52C926.616 1038.38 919.21 1042.37 913.957 1044.83C888.393 1056.78 851.841 1061.67 823.858 1066.02Q788.672 1071.58 753.257 1075.44Q717.843 1079.29 682.284 1081.43C664.493 1082.43 646.319 1081.93 628.475 1082.09C598.843 1082.35 568.892 1082.73 539.278 1081.49C532.634 1081.21 526.037 1080.27 519.404 1079.84C500.448 1078.6 481.37 1077.64 462.453 1075.87C448.55 1074.56 434.684 1072.62 420.816 1070.99C382.521 1066.47 334.912 1060.51 299.013 1047.38C291.744 1044.72 282.472 1040.38 278.94 1033.05C277.529 1030.13 277.249 1026.87 278.377 1023.8C280.967 1016.75 289.72 1012.07 296.282 1009.29C323.234 997.845 362.019 991.992 391.34 987.835C395.434 987.255 408.126 986.328 410.771 983.709C414.035 989.249 420.13 993.451 426.259 995.208C432.146 994.282 438.576 994.819 444.557 994.857L476.275 995.113C484.423 995.184 500.844 994.145 508.278 995.698C546.379 996.172 584.651 997.561 622.741 996.453L673.422 996.536C680.926 996.519 689.447 997.237 696.855 996.134C708.751 994.48 721.919 995.42 733.946 995.486Q758.406 995.51 782.864 995.261Z"/>
	<path fill="#D94641" d="M426.259 995.208C432.146 994.282 438.576 994.819 444.557 994.857L476.275 995.113C484.423 995.184 500.844 994.145 508.278 995.698C506.568 1010.12 499.787 1045.3 494.01 1058.46C487.63 1059.11 444.035 1059.18 439.995 1057.78C434.825 1055.98 430.23 1004.13 426.484 995.688C426.412 995.526 426.334 995.368 426.259 995.208Z"/>
	<path fill="#902027" d="M696.855 996.134C708.751 994.48 721.919 995.42 733.946 995.486Q758.406 995.51 782.864 995.261L777.467 998.854C775.909 1007.3 775.604 1015.95 774.668 1024.48Q772.618 1041.72 769.31 1058.77C761.593 1058.77 715.946 1061.53 712.826 1058.26C708.28 1053.5 699.672 1006.15 696.855 996.134Z"/>
	<path fill="#FBAA7A" d="M493.098 152.973C516.816 164.583 542.141 173.272 567.156 181.617C584.027 187.245 600.595 193.027 618.061 196.561C632.692 201.929 647.948 206.211 662.962 210.384C668.612 211.955 674.735 212.986 680.248 214.9C681.329 215.275 682.624 215.607 683.194 216.703C683.275 216.858 683.326 217.028 683.392 217.19L683.644 218.666C682.515 226.642 683.165 235.432 683.184 243.487L683.09 281.581C683.014 295.824 684.491 312.043 677.629 325.03C670.488 333.204 663.361 335.363 652.779 336.059C642.098 336.76 631.119 336.3 620.411 336.302L558.709 336.24C548.126 336.228 536.373 335.117 525.94 336.618C525.633 336.75 525.32 336.869 525.018 337.012C520.464 339.175 513.531 347.861 509.631 351.774C503.911 357.514 497.94 363.833 490.897 367.94C475.497 376.921 443.76 376.721 426.923 371.804C416.493 368.759 407.268 363.147 398.365 357.06C390.648 351.783 383.183 345.055 373.883 342.892C358.757 341.038 342.259 342.084 326.975 342.008C325.974 328.737 326.883 314.628 326.878 301.262L327.464 204.586C334.982 204.261 342.555 204.955 350.082 205.066C363.829 205.27 377.575 205.077 391.321 205.393C401.027 205.616 421.567 207.334 429.72 204.854C436.297 202.853 442.176 197.825 447.266 193.389C462.264 180.316 475.725 162.864 493.098 152.973Z"/>
	<path fill="#D1E7F1" d="M586.707 293.917C587.052 300.447 587.062 307.461 588.912 313.759C590.563 309.631 589.079 304.024 590.553 299.479C590.826 308.431 592.342 316.42 595.216 324.93L593.748 325.57C592.351 325.1 591.155 324.533 590.327 323.244C585.919 316.379 585.307 301.74 586.707 293.917Z"/>
	<path fill="#FCFCFC" d="M529.429 234.886C548.175 232.743 567.486 234.382 586.331 234.569C608.637 234.79 631.359 234.046 653.613 235.292C653.777 254.984 654.904 275.205 653.974 294.839L653.766 308.686C645.103 308.999 636.498 308.863 627.834 308.636C624.805 304.43 623.986 299.389 623.475 294.372C623.078 290.72 622.478 289.106 619.522 286.846C614.564 283.056 607.39 282.763 601.431 283.763C599.77 284.042 598.154 284.418 596.569 284.986C592.337 289.693 591.181 293.3 590.553 299.479C589.079 304.024 590.563 309.631 588.912 313.759C587.062 307.461 587.052 300.447 586.707 293.917C587.28 290.455 588.739 287.901 590.75 285.072C570.448 283.268 549.774 283.257 529.394 282.662C522.168 282.451 514.465 283.016 507.327 282.055C505.471 281.804 503.767 281.118 502.059 280.38C501.565 268.547 507.276 255.552 515.311 246.858C519.425 242.407 524.7 238.684 529.429 234.886Z"/>
	<path fill="#FCFCFC" d="M683.392 217.19C692.579 217.54 701.819 217.161 711.015 217.199L767.368 217.703C780.192 217.836 797.457 216.594 809.591 220.403C816.513 222.576 822.835 227.639 827.682 232.94C831.417 237.024 835.022 242.188 836.099 247.687C837.922 256.991 837.186 267.372 837.198 276.844L837.194 320.709Q837.258 402.679 836.434 484.645Q825.548 485.253 814.651 484.876C801.966 485.936 788.425 484.934 775.662 484.867C734.321 485.906 692.833 483.797 651.514 485.108C642.503 485.742 633.633 485.351 624.618 485.438C609.813 485.58 595.032 486.08 580.221 485.875C571.951 485.76 563.704 485.082 555.43 484.961C533.242 484.636 511.062 484.947 488.874 484.801C455.609 484.581 422.211 484.09 388.959 485.073Q381.263 485.019 373.58 484.555C373.105 474.535 373.5 464.31 373.503 454.272Q373.378 426.527 373.666 398.785C373.863 380.178 373.047 361.465 373.883 342.892C383.183 345.055 390.648 351.783 398.365 357.06C407.268 363.147 416.493 368.759 426.923 371.804C443.76 376.721 475.497 376.921 490.897 367.94C497.94 363.833 503.911 357.514 509.631 351.774C513.531 347.861 520.464 339.175 525.018 337.012C525.32 336.869 525.633 336.75 525.94 336.618C536.373 335.117 548.126 336.228 558.709 336.24L620.411 336.302C631.119 336.3 642.098 336.76 652.779 336.059C663.361 335.363 670.488 333.204 677.629 325.03C684.491 312.043 683.014 295.824 683.09 281.581L683.184 243.487C683.165 235.432 682.515 226.642 683.644 218.666L683.392 217.19Z"/>
	<path fill="#E7E1E0" d="M525.94 336.618C536.373 335.117 548.126 336.228 558.709 336.24L620.411 336.302C631.119 336.3 642.098 336.76 652.779 336.059C663.361 335.363 670.488 333.204 677.629 325.03C676.587 328.722 674.097 331.259 670.768 333.087C663.174 337.256 653.684 335.298 647.749 338.81C644.963 340.458 554.215 339.645 544.79 339.156C538.574 338.833 532.018 337.982 525.94 336.618Z"/>
	<path fill="#D94641" d="M367.247 593.294C367.147 591.397 367.13 590.007 367.735 588.195C370.919 587.328 376.35 588.221 379.774 588.278C391.974 588.48 404.571 589.18 416.739 588.462L417.39 588.419L417.403 589.211C436.576 588.092 456.369 589.081 475.599 589.092L593.848 589.54Q610.167 589.63 626.484 589.892C638.84 590.099 650.703 590.619 662.967 588.636Q705.781 589.254 748.597 588.909C779.42 588.872 810.128 589.133 840.933 587.814C840.647 591.417 840.35 594.987 839.8 598.561C836.141 618.704 835.035 639.541 832.468 659.875Q824.375 719.643 817.751 779.592C816.566 790.752 815.933 801.971 814.822 813.14C813.017 831.284 810.239 849.349 808.131 867.464Q801.511 925.157 796.293 982.993C792.543 987.731 788.16 992.248 782.864 995.261Q758.406 995.51 733.946 995.486C721.919 995.42 708.751 994.48 696.855 996.134C689.447 997.237 680.926 996.519 673.422 996.536L622.741 996.453C584.651 997.561 546.379 996.172 508.278 995.698C500.844 994.145 484.423 995.184 476.275 995.113L444.557 994.857C438.576 994.819 432.146 994.282 426.259 995.208C420.13 993.451 414.035 989.249 410.771 983.709C408.963 969.912 408.374 955.874 407.052 942.009C405.169 922.252 402.615 902.431 400.245 882.721L392.384 815.433C388.731 786.183 384.644 756.78 382.5 727.38C380.556 715.895 379.778 704.125 378.272 692.565Q371.349 643.086 367.247 593.294Z"/>
	<path fill="#902027" d="M662.967 588.636Q705.781 589.254 748.597 588.909C779.42 588.872 810.128 589.133 840.933 587.814C840.647 591.417 840.35 594.987 839.8 598.561C831.65 597.732 823.307 598.059 815.12 598.122L774.486 598.552C766.871 598.595 759.241 597.761 751.617 597.614C732.519 597.247 713.389 597.434 694.286 597.412Q533.556 598.129 372.838 596.115C370.904 596.074 370.007 596.068 368.651 594.667C368.089 592.828 367.926 591.658 368.032 589.739C375.42 588.111 384.166 589.9 391.693 589.955C400.251 590.017 408.852 589.54 417.403 589.211C436.576 588.092 456.369 589.081 475.599 589.092L593.848 589.54Q610.167 589.63 626.484 589.892C638.84 590.099 650.703 590.619 662.967 588.636Z"/>
	<path fill="#FCFCFC" d="M595.241 622.195C614.615 620.615 638.495 627.939 653.737 640.016C670.319 653.155 679.593 675.053 681.872 695.662C684.108 715.887 678.343 738.153 665.419 754.06C651.761 770.871 629.812 780.662 608.596 782.829C589.511 784.538 568.772 779.787 553.364 768.112C535.553 754.615 524.246 733.392 521.426 711.37C518.73 690.323 524.001 671.597 537.033 654.864C551.579 636.186 571.732 625.168 595.241 622.195Z"/>
	<path fill="#4A8148" d="M601.802 652.187C611.617 657.388 611.282 676.619 614.511 686.068C614.592 686.305 614.679 686.54 614.764 686.776C621.722 684.274 637.201 675.685 644.024 676.617C645.266 679.563 644.548 684.814 644.221 687.993C642.751 702.289 635.035 712.869 623.693 721.227C619.629 724.221 615.285 726.787 611.368 729.986L610.82 730.442C608.34 737.171 607.486 754.04 602.56 758.434L601.835 758.357L600.937 755.562C596.751 747.239 596.88 733.941 590.386 727.901C586.361 724.157 581.148 721.686 576.948 718.096C567.566 710.079 557.127 696.738 556.361 683.913C556.193 681.098 556.178 676.841 558.143 674.704C563.828 674.22 585.002 683.294 590.259 686.504C592.139 677.019 595.362 659.254 601.802 652.187Z"/>
	<path fill="#F17C62" d="M382.5 727.38C403.533 747.519 432.276 761.843 457.18 776.864C521.778 815.828 592.103 866.081 614.539 942.105C619.793 959.911 619.29 978.394 622.741 996.453C584.651 997.561 546.379 996.172 508.278 995.698C500.844 994.145 484.423 995.184 476.275 995.113L444.557 994.857C438.576 994.819 432.146 994.282 426.259 995.208C420.13 993.451 414.035 989.249 410.771 983.709C408.963 969.912 408.374 955.874 407.052 942.009C405.169 922.252 402.615 902.431 400.245 882.721L392.384 815.433C388.731 786.183 384.644 756.78 382.5 727.38Z"/>
</svg>
