<?xml version="1.0" encoding="utf-8" ?>
<svg xmlns="http://www.w3.org/2000/svg" xmlns:xlink="http://www.w3.org/1999/xlink" width="1204" height="1204">
	<path fill="#D3E7CD" d="M0 0L41.9809 0L1161.91 0L1204 0L1204 41.8541L1204 278.04L1204 690.031L1204 714.307L1204 794.692L1204 801.885L1204 938.568L1204 956.883L1204 973.708L1204 987.017L1204 1126.1L1204 1162.2L1204 1204L1162.6 1204L1073 1204L1045.65 1204L1041.57 1204L1035.74 1204L1033.66 1204L719.86 1204L151.823 1204L128.615 1204L84.6743 1204L41.4766 1204L0 1204L0 1162.12L0 1018.06L0 1004.01L0 998.471L0 985.8L0 946.506L0 895.208L0 892.674L0 835.733L0 794.792L0 765.787L0 729.36L0 680.478L0 407.724L0 367.732L0 358.028L0 244.68L0 235.378L0 42.03L0 0ZM1100.65 658.284L1099.64 659.752C1102.76 662.213 1103.95 664.123 1104.35 668.144C1104.88 673.574 1103.52 679.655 1102.76 685.023C1102.33 686.337 1101.91 687.491 1101.94 688.897C1099.81 688.966 1099.11 688.652 1097.48 690.102C1096 694.495 1097.06 699.165 1096.94 703.736C1096.36 705.539 1095.75 706.88 1094.68 708.448C1093.1 710.339 1091.46 711.85 1089.54 713.39C1066.14 718.246 1039.95 712.078 1016.83 707.717C1021.23 712.011 1023.72 721.84 1023.67 727.952C1023.66 729.272 1023.33 730.676 1022.88 731.913C1017.69 730.876 1004.56 733.568 998.771 734.231C975.183 736.934 951.802 739.88 928.285 743.18C913.751 745.219 898.593 748.232 883.973 748.873Q867.452 750.718 851.006 753.137C844.267 754.12 836.953 755.813 830.189 755.91C819.504 757.08 808.907 758.758 798.246 760.096C785.13 761.742 772.14 763.077 759.164 765.695C752.995 766.892 746.176 768.162 739.873 767.625C732.131 766.966 724.318 763.571 716.744 761.726Q691.835 755.702 666.643 750.996C653.597 748.246 640.138 746.858 627.002 744.342C624.561 744.11 622.16 743.898 619.755 743.394C599.012 740.697 578.481 736.717 557.695 734.088L532.83 730.212C522.071 729.401 510.422 728.54 499.87 726.351C488.352 724.527 476.622 723.415 465.042 721.952C450.672 721.787 436.157 719.604 421.873 718.1C408.091 716.648 394.28 715.724 380.473 714.573C351.759 712.465 323.164 707.576 294.463 705.938C289.727 705.34 275.296 704.85 272.101 702.762L271.362 702.721C267.129 703.031 262.218 702.229 257.943 701.924C240.839 700.705 223.867 697.719 206.811 696.584C198.312 695.768 181.166 695.648 174.177 693.941C157.676 692.435 141.123 690.334 124.581 689.494C117.473 689.531 110.092 688.101 102.929 687.777C90.9555 687.829 78.9196 685.857 66.8744 685.807C65.5843 686.585 8.56534 680.374 0 680.478L0 729.36L0 765.787L0 794.792L0 835.733L0 892.674L0 895.208L0 946.506L0 985.8L0 998.471L0 1004.01L0 1018.06L0 1162.12L0 1204L41.4766 1204L84.6743 1204L128.615 1204L151.823 1204L719.86 1204L1033.66 1204L1035.74 1204L1041.57 1204L1045.65 1204L1073 1204L1162.6 1204L1204 1204L1204 1162.2L1204 1126.1L1204 987.017L1204 973.708L1204 956.883L1204 938.568L1204 801.885L1204 794.692L1204 714.307C1201.02 713.771 1198.51 713.198 1195.75 711.863C1192.9 713.068 1190.1 714.271 1187.03 714.77L1181.02 716.225C1178.25 713.617 1177.06 710.007 1174.5 707.29C1170.52 703.074 1163.72 701.017 1158.77 697.943C1147.58 692.533 1135.41 684.95 1125.94 676.896C1117.01 671.198 1110.45 662.834 1100.65 658.284ZM0 0L0 42.03C1.45402 35.2144 3.50673 28.7018 7.13208 22.7003C15.2524 9.25781 27.2039 3.53898 41.9809 0L0 0ZM1161.91 0C1176.48 3.35543 1188.64 9.27758 1196.75 22.3933C1200.47 28.4113 1202.55 34.9759 1204 41.8541L1204 0L1161.91 0Z"/>
	<path fill="#FEFEFE" d="M0 358.028C16.72 357.494 33.3243 356.178 50.0131 355.407C71.8847 354.396 93.7895 353.724 115.65 352.399C122.577 351.979 129.47 351.076 136.394 350.693Q181.671 348.429 227.002 347.874C233.426 347.739 257.217 346.327 262.107 348.271L262.626 349.546C232.075 356.857 200.654 363.569 169.524 367.937C160.453 365.091 124.059 367.258 112.009 367.31L0 367.732L0 358.028Z"/>
	<path fill="#FEFEFE" d="M345.436 248.877C346.174 242.59 347.144 236.051 349.818 230.254C351.977 225.575 355.427 221.271 360.441 219.551C374.181 214.838 380.577 227.615 388.163 229.405C396.114 231.28 409.727 229.841 418.229 229.632C432.403 229.284 446.58 229.52 460.743 229.17C473.414 228.857 486.186 227.815 498.863 228.17C500.648 228.22 502.379 228.205 504.008 229.031C505.008 230.555 504.665 232.153 504.545 233.882C496.707 242.42 488.815 251.661 481.844 260.915C450.029 257.775 417.282 258.854 385.311 259.054Q317.906 259.165 250.533 257.089Q234.399 256.566 218.259 256.263C213.459 256.185 208.436 256.568 203.667 256.18C202.282 256.067 200.888 255.731 199.929 254.669C201.914 252.606 207.227 252.361 210.049 252.108C222.067 251.031 234.424 251.829 246.501 251.485L345.436 248.877Z"/>
	<path fill="#FEFEFE" d="M960.661 204.21C961.775 202.919 962.063 202.028 963.906 201.983C969.111 201.854 974.901 203.945 980.163 204.409C996.433 205.842 1030.47 205.986 1045.4 201.88Q1046.89 201.469 1048.32 200.9Q1049.76 200.331 1051.12 199.612Q1052.49 198.893 1053.77 198.032Q1055.05 197.171 1056.23 196.177C1061.37 191.809 1064.14 185.542 1067.93 180.102C1077.42 166.472 1096.16 161.16 1112.06 162.033C1124.42 162.712 1135.55 167.116 1143.91 176.449C1154.44 188.224 1156.25 201.214 1157.58 216.274C1164.8 216.095 1180.83 215.306 1187.15 217.699C1161.34 219.718 1135.36 219.484 1109.48 219.406L1031.82 219.345Q1017.56 219.328 1003.31 218.83C997.539 218.651 990.74 217.742 985.082 218.657C976.813 214.048 968.74 209.142 960.661 204.21Z"/>
	<path fill="#FEFEFE" d="M46.8588 235.056C47.187 219.726 51.976 205.749 63.2848 194.913C74.3565 184.303 89.5894 179.681 104.679 180.077C120.543 180.492 133.386 186.263 144.233 197.933C153.935 208.371 158.087 219.482 157.514 233.733C157.323 238.476 156.443 243.072 155.196 247.642C139.545 248.664 123.55 247.58 107.86 247.36Q78.2076 247.174 48.5599 246.622C32.3646 246.165 16.2025 245.101 0 244.68L0 235.378L46.8588 235.056Z"/>
	<path fill="#FEFEFE" d="M695.102 181.114Q694.895 179.722 694.743 178.324Q694.591 176.925 694.493 175.522Q694.395 174.119 694.352 172.712Q694.309 171.306 694.321 169.9Q694.333 168.493 694.4 167.088Q694.466 165.682 694.587 164.281Q694.709 162.879 694.884 161.483Q695.06 160.088 695.29 158.7Q695.52 157.312 695.804 155.934Q696.088 154.556 696.425 153.19Q696.763 151.825 697.153 150.473Q697.543 149.122 697.986 147.786Q698.428 146.451 698.922 145.134Q699.417 143.817 699.962 142.52Q700.507 141.223 701.102 139.948Q701.698 138.673 702.342 137.423C711.183 120.365 725.727 108.688 744.015 103.049Q745.544 102.572 747.095 102.173Q748.646 101.773 750.215 101.452Q751.784 101.13 753.367 100.888Q754.95 100.645 756.543 100.482Q758.136 100.318 759.735 100.235Q761.335 100.151 762.936 100.148Q764.538 100.145 766.138 100.221Q767.737 100.298 769.331 100.454Q770.925 100.611 772.509 100.847Q774.093 101.083 775.663 101.398Q777.234 101.713 778.786 102.106Q780.339 102.499 781.87 102.969Q783.401 103.439 784.906 103.985Q786.412 104.531 787.888 105.151Q789.365 105.772 790.808 106.466Q792.252 107.159 793.659 107.924C815.878 119.985 829.305 143.085 831.582 168.004C832.106 173.75 830.587 181.581 832.392 186.924C832.508 187.269 832.646 187.607 832.773 187.948L830.337 193.365C817.435 192.428 804.14 192.963 791.193 192.921L710.595 192.754Q673.142 192.007 635.701 190.784C621.617 190.368 607.518 190.295 593.44 189.663C573.951 188.788 554.493 187.205 535.004 186.309C526.577 185.922 518.092 185.833 509.683 185.16C505.409 184.818 501.15 183.957 496.879 183.727C488.886 183.296 476.257 184.44 469.064 181.967L469.15 180.732L470.375 180.084C476.033 181.711 495.036 180.884 502.103 180.896L592.14 180.164C626.342 179.683 660.944 179.489 695.102 181.114Z"/>
	<path fill="#93BEA3" d="M454.076 296.268C451.623 300.157 452.732 304.387 453.705 308.617C457.723 326.071 464.671 343.178 469.87 360.336C471.819 366.77 474.092 373.578 474.977 380.247C475.809 386.517 475.509 393.163 475.032 399.449C474.446 407.149 470.204 415.128 466.857 421.987C448.226 460.165 425.801 496.396 406.642 534.341C394.904 557.588 384.57 581.446 372.961 604.737C369.197 612.289 365.684 620.527 361.214 627.665C360.187 629.303 358.706 631.906 356.799 632.454L355.302 630.7C361.85 653.498 368.167 676.395 375.861 698.837C376.799 701.575 381.484 712.244 380.473 714.573C351.759 712.465 323.164 707.576 294.463 705.938C289.727 705.34 275.296 704.85 272.101 702.762L271.362 702.721C267.129 703.031 262.218 702.229 257.943 701.924C240.839 700.705 223.867 697.719 206.811 696.584C198.312 695.768 181.166 695.648 174.177 693.941C157.676 692.435 141.123 690.334 124.581 689.494C117.473 689.531 110.092 688.101 102.929 687.777C90.9555 687.829 78.9196 685.857 66.8744 685.807C65.5843 686.585 8.56534 680.374 0 680.478L0 407.724L0 367.732L112.009 367.31C124.059 367.258 160.453 365.091 169.524 367.937C200.654 363.569 232.075 356.857 262.626 349.546C293.726 343.957 324.202 333.848 354.418 324.776Q403.967 309.541 454.076 296.268Z"/>
	<path fill="#476C61" d="M311.991 577.997C313.908 585.014 310.338 597.907 309.218 605.409C307.67 615.778 306.544 626.193 304.852 636.546C303.33 645.855 291.659 701.494 294.463 705.938C289.727 705.34 275.296 704.85 272.101 702.762C276.785 691.6 279.742 679.203 283.349 667.608L301.289 610.909C304.579 600.15 307.322 588.204 311.991 577.997Z"/>
	<path fill="#4F7F7C" d="M66.8744 685.807C67.6234 681.141 70.0484 676.344 72.2059 672.169C82.2655 652.7 92.9314 644.076 104.454 627.611C108.804 621.397 112.61 613.806 115.135 606.641C116.136 632.358 105.203 662.311 102.929 687.777C90.9555 687.829 78.9196 685.857 66.8744 685.807Z"/>
	<path fill="#D3E7CD" d="M0 367.732L112.009 367.31C124.059 367.258 160.453 365.091 169.524 367.937C158.362 371.596 146.523 373.418 135.022 375.743C124.769 377.816 114.548 380.297 104.345 382.627Q72.1513 389.698 40.153 397.607C26.7764 400.895 13.4278 404.703 0 407.724L0 367.732Z"/>
	<defs>
		<linearGradient id="gradient_0" gradientUnits="userSpaceOnUse" x1="172.71671" y1="609.16437" x2="122.12532" y2="610.8244">
			<stop offset="0" stop-color="#063443"/>
			<stop offset="1" stop-color="#234B51"/>
		</linearGradient>
	</defs>
	<path fill="url(#gradient_0)" d="M115.135 606.641C118.041 595.587 133.038 526.919 139.582 523.089C140.442 522.586 141.144 523.028 142.047 523.24C145.015 528.184 153.994 574.006 156.478 584.073C162.308 607.706 169.838 631.86 174.646 655.589C175.131 661.025 177.712 690.251 175.266 693.662L174.177 693.941C157.676 692.435 141.123 690.334 124.581 689.494C117.473 689.531 110.092 688.101 102.929 687.777C105.203 662.311 116.136 632.358 115.135 606.641Z"/>
	<path fill="#345D5F" d="M115.135 606.641C118.041 595.587 133.038 526.919 139.582 523.089C140.442 522.586 141.144 523.028 142.047 523.24C141.614 523.751 141.057 524.18 140.748 524.774C139.053 528.032 141.887 544.669 140.883 550.016L140.45 547.12L139.569 548.349L140.906 547.138L141.508 547.727L139.597 548.499C137.975 555.039 136.231 561.674 135.226 568.343C133.831 577.605 133.413 587.042 132.337 596.349C130.848 609.227 120.978 683.139 124.581 689.494C117.473 689.531 110.092 688.101 102.929 687.777C105.203 662.311 116.136 632.358 115.135 606.641Z"/>
	<defs>
		<linearGradient id="gradient_1" gradientUnits="userSpaceOnUse" x1="366.224" y1="624.76044" x2="284.59747" y2="636.9007">
			<stop offset="0" stop-color="#002132"/>
			<stop offset="1" stop-color="#24464B"/>
		</linearGradient>
	</defs>
	<path fill="url(#gradient_1)" d="M311.991 577.997C312.064 577.806 312.139 577.616 312.21 577.425C314.688 570.753 319.794 542.802 323.574 539.527L324.815 539.285C328.825 542.773 344.67 598.648 347.515 607.61C349.974 615.358 352.799 622.974 355.302 630.7C361.85 653.498 368.167 676.395 375.861 698.837C376.799 701.575 381.484 712.244 380.473 714.573C351.759 712.465 323.164 707.576 294.463 705.938C291.659 701.494 303.33 645.855 304.852 636.546C306.544 626.193 307.67 615.778 309.218 605.409C310.338 597.907 313.908 585.014 311.991 577.997Z"/>
	<path fill="#1A414A" d="M205.868 547.141C206.914 541.887 208.391 527.819 212.654 524.731C214.012 525.501 214.537 527.057 215.072 528.456C219.28 539.477 222.376 551.286 225.94 562.539C236.952 597.314 246.617 632.481 257.491 667.303C260.778 677.828 263.53 690.793 268.976 700.359C269.557 701.381 270.37 702.106 271.362 702.721C267.129 703.031 262.218 702.229 257.943 701.924C240.839 700.705 223.867 697.719 206.811 696.584C198.312 695.768 181.166 695.648 174.177 693.941L175.266 693.662C177.712 690.251 175.131 661.025 174.646 655.589C176.008 652.12 176.133 647.175 176.832 643.452C177.994 637.261 179.463 631.063 181.023 624.961C184.757 610.354 189.703 595.986 194.343 581.646C198.068 570.133 201.465 558.414 205.868 547.141Z"/>
	<path fill="#476C61" d="M205.868 547.141C205.63 555.319 204.543 563.418 204.461 571.607C204.042 613.312 206.31 654.912 206.811 696.584C198.312 695.768 181.166 695.648 174.177 693.941L175.266 693.662C177.712 690.251 175.131 661.025 174.646 655.589C176.008 652.12 176.133 647.175 176.832 643.452C177.994 637.261 179.463 631.063 181.023 624.961C184.757 610.354 189.703 595.986 194.343 581.646C198.068 570.133 201.465 558.414 205.868 547.141Z"/>
	<defs>
		<linearGradient id="gradient_2" gradientUnits="userSpaceOnUse" x1="763.20618" y1="146.32634" x2="796.75098" y2="752.30945">
			<stop offset="0" stop-color="#467E88"/>
			<stop offset="1" stop-color="#7CB49C"/>
		</linearGradient>
	</defs>
	<path fill="url(#gradient_2)" d="M856.986 139.839C873.027 146.459 887.91 158.693 902.617 167.971C921.896 180.133 941.942 191.18 960.661 204.21C968.74 209.142 976.813 214.048 985.082 218.657C994.245 224.497 1003.11 230.775 1012.28 236.603C1027.44 246.242 1043 255.256 1058.38 264.559C1071.8 272.687 1085.05 281.17 1098.58 289.121C1110.7 296.243 1123.28 302.764 1135.65 309.426C1141.65 312.656 1148.04 315.56 1153.6 319.525Q1169.22 308.421 1183.55 295.702C1190.24 289.819 1196.8 283.266 1204 278.04L1204 690.031L1204 714.307C1201.02 713.771 1198.51 713.198 1195.75 711.863C1192.9 713.068 1190.1 714.271 1187.03 714.77L1181.02 716.225C1178.25 713.617 1177.06 710.007 1174.5 707.29C1170.52 703.074 1163.72 701.017 1158.77 697.943C1147.58 692.533 1135.41 684.95 1125.94 676.896C1117.01 671.198 1110.45 662.834 1100.65 658.284L1099.64 659.752C1102.76 662.213 1103.95 664.123 1104.35 668.144C1104.88 673.574 1103.52 679.655 1102.76 685.023C1102.33 686.337 1101.91 687.491 1101.94 688.897C1099.81 688.966 1099.11 688.652 1097.48 690.102C1096 694.495 1097.06 699.165 1096.94 703.736C1096.36 705.539 1095.75 706.88 1094.68 708.448C1093.1 710.339 1091.46 711.85 1089.54 713.39C1066.14 718.246 1039.95 712.078 1016.83 707.717C1021.23 712.011 1023.72 721.84 1023.67 727.952C1023.66 729.272 1023.33 730.676 1022.88 731.913C1017.69 730.876 1004.56 733.568 998.771 734.231C975.183 736.934 951.802 739.88 928.285 743.18C913.751 745.219 898.593 748.232 883.973 748.873Q867.452 750.718 851.006 753.137C844.267 754.12 836.953 755.813 830.189 755.91C819.504 757.08 808.907 758.758 798.246 760.096C785.13 761.742 772.14 763.077 759.164 765.695C752.995 766.892 746.176 768.162 739.873 767.625C732.131 766.966 724.318 763.571 716.744 761.726Q691.835 755.702 666.643 750.996C653.597 748.246 640.138 746.858 627.002 744.342C624.561 744.11 622.16 743.898 619.755 743.394C599.012 740.697 578.481 736.717 557.695 734.088L532.83 730.212C522.071 729.401 510.422 728.54 499.87 726.351C488.352 724.527 476.622 723.415 465.042 721.952C450.672 721.787 436.157 719.604 421.873 718.1C408.091 716.648 394.28 715.724 380.473 714.573C381.484 712.244 376.799 701.575 375.861 698.837C368.167 676.395 361.85 653.498 355.302 630.7L356.799 632.454C358.706 631.906 360.187 629.303 361.214 627.665C365.684 620.527 369.197 612.289 372.961 604.737C384.57 581.446 394.904 557.588 406.642 534.341C425.801 496.396 448.226 460.165 466.857 421.987C470.204 415.128 474.446 407.149 475.032 399.449C475.509 393.163 475.809 386.517 474.977 380.247C474.092 373.578 471.819 366.77 469.87 360.336C464.671 343.178 457.723 326.071 453.705 308.617C452.732 304.387 451.623 300.157 454.076 296.268C459.965 292.724 474.976 268.742 481.844 260.915C488.815 251.661 496.707 242.42 504.545 233.882C511.972 225.849 517.861 216.297 524.683 207.749C534.936 212.413 544.67 220.912 553.749 227.537Q579.097 245.892 602.986 266.11C614.524 275.885 625.55 286.21 636.915 296.178C653.964 311.13 671.724 325.885 689.614 339.814C698.717 333.449 709.141 328.532 718.69 322.804C736.876 311.894 754.226 299.603 771.848 287.814C779.338 282.804 787.81 278.392 794.815 272.801L795.659 272.117C797.305 270.802 798.202 269.551 799.11 267.649C803.065 259.362 805.767 250.16 809.185 241.612C815.641 225.468 822.822 209.054 830.337 193.365L832.773 187.948C840.043 172.191 851.28 155.8 856.986 139.839Z"/>
	<defs>
		<linearGradient id="gradient_3" gradientUnits="userSpaceOnUse" x1="1176.6984" y1="708.98291" x2="1205.7408" y2="700.75952">
			<stop offset="0" stop-color="#010203"/>
			<stop offset="1" stop-color="#1E2E45"/>
		</linearGradient>
	</defs>
	<path fill="url(#gradient_3)" d="M1175.56 684.448C1177.54 686.735 1181.28 689.807 1184.37 690.056C1185.64 691.057 1186.71 692.347 1187.36 693.851C1190.67 698.22 1194.55 702.013 1198.47 705.82C1198.8 699.822 1200.96 695.08 1204 690.031L1204 714.307C1201.02 713.771 1198.51 713.198 1195.75 711.863C1192.9 713.068 1190.1 714.271 1187.03 714.77L1181.02 716.225C1178.25 713.617 1177.06 710.007 1174.5 707.29C1170.52 703.074 1163.72 701.017 1158.77 697.943L1163.71 698.62C1163.66 697.966 1163.62 697.61 1163.65 696.916C1163.83 693.032 1166.29 691.324 1168.9 688.832L1175.56 684.448Z"/>
	<path fill="#BFCA87" d="M1184.92 705.488C1188.63 707.423 1192.18 709.691 1195.75 711.863C1192.9 713.068 1190.1 714.271 1187.03 714.77C1186.68 711.742 1185.62 708.474 1184.92 705.488Z"/>
	<path fill="#D59284" d="M1175.56 684.448C1177.54 686.735 1181.28 689.807 1184.37 690.056C1185.64 691.057 1186.71 692.347 1187.36 693.851C1181.69 695.059 1178.46 701.19 1175.26 705.608C1171.42 703.321 1167.37 701.164 1163.71 698.62C1163.66 697.966 1163.62 697.61 1163.65 696.916C1163.83 693.032 1166.29 691.324 1168.9 688.832L1175.56 684.448Z"/>
	<path fill="#FCB478" d="M1092.27 488.91C1094.42 484.423 1098.51 475.397 1103.52 473.653C1105.01 473.135 1105.33 473.303 1106.64 473.949C1106.57 474.78 1106.58 475.392 1106.65 476.243C1109.75 477.861 1116.06 476.771 1119.54 476.523C1120.95 477.198 1121.07 477.278 1121.64 478.813C1124.02 485.135 1125.64 494.604 1122.58 500.859C1120.56 504.962 1116.72 507.337 1112.44 508.584C1107.03 510.159 1101.63 509.855 1096.08 509.683Q1095.16 517.443 1094.37 525.216C1089.74 520.402 1084.17 516.621 1079.63 511.586C1072.29 503.426 1075.32 502.954 1075.67 493.768C1075.68 493.562 1075.68 493.357 1075.69 493.152C1075.57 491.306 1075.79 489.296 1075.86 487.438C1075.58 484.637 1074.8 482.479 1074.01 479.82C1073.56 478.308 1073.49 477.786 1074.2 476.379L1075.35 476.126C1081.4 477.858 1087.55 484.794 1092.27 488.91Z"/>
	<path fill="#032E4B" d="M1075.86 487.438C1075.66 488.586 1075.55 489.936 1074.74 490.844C1073.07 492.717 1068.81 493.824 1066.35 494.078C1060.74 494.657 1055.44 491.928 1051.31 488.357C1047.01 484.647 1044 479.852 1043.78 474.071C1043.65 470.957 1044.33 467.654 1046.61 465.391C1054.63 457.451 1059.38 466.874 1065.45 466.151C1069.47 465.673 1072.18 457.936 1074.35 454.837C1077.74 449.99 1082.44 447.093 1088.25 446.062C1096.38 444.62 1107.42 445.612 1113.3 451.909C1115.89 454.687 1118.34 458.558 1121.33 460.836C1124.16 462.99 1128.33 463.323 1131.16 465.562C1132.41 466.557 1132.5 467.155 1132.57 468.688C1130.47 472.968 1123.79 474.994 1119.54 476.523C1116.06 476.771 1109.75 477.861 1106.65 476.243C1106.58 475.392 1106.57 474.78 1106.64 473.949C1105.33 473.303 1105.01 473.135 1103.52 473.653C1098.51 475.397 1094.42 484.423 1092.27 488.91C1087.55 484.794 1081.4 477.858 1075.35 476.126L1074.2 476.379C1073.49 477.786 1073.56 478.308 1074.01 479.82C1074.8 482.479 1075.58 484.637 1075.86 487.438Z"/>
	<path fill="#1A414A" d="M656.235 613.67L657.255 613.263C661.251 615.819 671.19 655.649 673.919 663.807C675.723 673.54 673.841 681.763 673 691.389C672.428 697.941 672.727 704.49 671.881 711.037C670.184 724.179 666.931 737.769 666.643 750.996C653.597 748.246 640.138 746.858 627.002 744.342C624.561 744.11 622.16 743.898 619.755 743.394L620.616 742.953C621.843 739.282 616.882 726.802 616.211 722.168C616.828 721.332 616.958 720.866 617.17 719.826C622.045 696.009 631.318 673.117 640.187 650.572C645.106 638.067 649.635 625.411 656.235 613.67Z"/>
	<path fill="#476C61" d="M656.235 613.67C656.718 619.066 656.386 623.855 655.613 629.211C653.36 644.825 649.188 660.341 645.729 675.741C641.967 692.491 635.376 730.965 627.002 744.342C624.561 744.11 622.16 743.898 619.755 743.394L620.616 742.953C621.843 739.282 616.882 726.802 616.211 722.168C616.828 721.332 616.958 720.866 617.17 719.826C622.045 696.009 631.318 673.117 640.187 650.572C645.106 638.067 649.635 625.411 656.235 613.67Z"/>
	<path fill="#345D5F" d="M798.705 650.191C813.937 643.54 823.707 626.824 838.883 619.93C848.345 653.505 861.105 686.492 872.981 719.294C876.546 729.141 880.833 738.903 883.973 748.873Q867.452 750.718 851.006 753.137C844.267 754.12 836.953 755.813 830.189 755.91C829.441 749.741 826.061 743.376 824.362 737.347C816.172 708.291 805.577 679.554 798.705 650.191Z"/>
	<path fill="#052D3C" d="M544.059 447.397C550.02 461.133 552.816 476.486 556.291 490.998C561.287 511.858 566.236 532.791 571.516 553.577Q584.013 604.558 597.839 655.195C603.896 677.455 610.913 699.73 616.211 722.168C616.882 726.802 621.843 739.282 620.616 742.953L619.755 743.394C599.012 740.697 578.481 736.717 557.695 734.088C557.103 730.628 557.462 726.564 557.431 723.036C557.355 714.469 557.452 705.838 556.866 697.288Q552.39 635.769 549.096 574.174C548.685 564.983 548.087 555.772 547.973 546.574C547.701 524.784 548.197 502.129 544.832 480.516C543.867 474.317 542.253 468.491 540.793 462.436L540.563 461.461L544.059 447.397Z"/>
	<path fill="#DE1F34" d="M1054.51 512.289C1059.57 505.415 1070.35 504.117 1075.69 493.152C1075.68 493.357 1075.68 493.562 1075.67 493.768C1075.32 502.954 1072.29 503.426 1079.63 511.586C1084.17 516.621 1089.74 520.402 1094.37 525.216C1095.95 534.258 1097.14 543.356 1098.69 552.4C1100.01 560.142 1101.71 567.877 1102.71 575.664C1103.84 584.539 1103.97 593.615 1106.23 602.311C1111.56 622.794 1135.51 643.961 1150.62 658.68C1160.65 668.455 1175.81 679.778 1184.37 690.056C1181.28 689.807 1177.54 686.735 1175.56 684.448L1168.9 688.832C1166.29 691.324 1163.83 693.032 1163.65 696.916C1163.62 697.61 1163.66 697.966 1163.71 698.62L1158.77 697.943C1147.58 692.533 1135.41 684.95 1125.94 676.896C1117.01 671.198 1110.45 662.834 1100.65 658.284L1099.64 659.752C1091.67 656.06 1056.51 618.711 1049.38 610.735C1049.28 602.839 1050.53 594.633 1051.03 586.727C1051.85 573.579 1051.12 559.355 1054.06 546.531C1054.99 542.486 1056.26 539.666 1058.87 536.379L1058.81 535.698L1058.1 535.68C1050.98 543.485 1052.95 553.751 1050.62 563.136L1049.41 562.196L1050.07 563.532C1049.18 561.683 1048.95 559.552 1048.58 557.541C1047.23 550.102 1046.33 546.129 1041.89 539.892C1041.07 538.731 1040.75 536.1 1040.45 534.646C1037.25 519.155 1052.23 519.535 1054.51 512.289Z"/>
	<path fill="#CB082E" d="M1125.94 676.896C1130.33 677.285 1137.54 684.073 1142.09 686.409C1146.78 688.813 1151.64 690.277 1156.78 691.35C1158.94 691.803 1161.25 692.526 1163.47 692.362C1164.86 690.99 1166.44 689.045 1168.23 688.274L1168.9 688.832C1166.29 691.324 1163.83 693.032 1163.65 696.916C1163.62 697.61 1163.66 697.966 1163.71 698.62L1158.77 697.943C1147.58 692.533 1135.41 684.95 1125.94 676.896Z"/>
	<path fill="#650111" d="M1091.36 558.365L1092.17 557L1093.1 557.098C1100.36 569.632 1099.93 615.359 1099.81 631.091C1099.75 639.632 1098.81 649.397 1100.2 657.794L1093.55 652.925C1092.66 620.359 1100.57 590.787 1091.36 558.365Z"/>
	<path fill="#F7802F" d="M1058.87 536.379C1063.36 534.082 1067.34 533.204 1072.28 534.861C1079.72 537.358 1085.38 544.351 1088.66 551.267C1089.74 553.547 1090.46 556.01 1091.36 558.365C1100.57 590.787 1092.66 620.359 1093.55 652.925L1100.2 657.794L1100.65 658.284L1099.64 659.752C1091.67 656.06 1056.51 618.711 1049.38 610.735C1049.28 602.839 1050.53 594.633 1051.03 586.727C1051.85 573.579 1051.12 559.355 1054.06 546.531C1054.99 542.486 1056.26 539.666 1058.87 536.379Z"/>
	<path fill="#CB082E" d="M1011.65 618.104C1011.9 598.055 1015.15 572.363 1020.1 552.941C1024.23 536.697 1027.69 531.714 1041.08 521.776C1045.46 518.52 1049.81 515.087 1054.51 512.289C1052.23 519.535 1037.25 519.155 1040.45 534.646C1040.75 536.1 1041.07 538.731 1041.89 539.892C1046.33 546.129 1047.23 550.102 1048.58 557.541C1048.95 559.552 1049.18 561.683 1050.07 563.532L1049.41 562.196L1050.62 563.136C1052.95 553.751 1050.98 543.485 1058.1 535.68L1058.81 535.698L1058.87 536.379C1056.26 539.666 1054.99 542.486 1054.06 546.531C1051.12 559.355 1051.85 573.579 1051.03 586.727C1050.53 594.633 1049.28 602.839 1049.38 610.735C1056.51 618.711 1091.67 656.06 1099.64 659.752C1102.76 662.213 1103.95 664.123 1104.35 668.144C1104.88 673.574 1103.52 679.655 1102.76 685.023C1102.33 686.337 1101.91 687.491 1101.94 688.897C1099.81 688.966 1099.11 688.652 1097.48 690.102C1096 694.495 1097.06 699.165 1096.94 703.736C1096.36 705.539 1095.75 706.88 1094.68 708.448C1093.1 710.339 1091.46 711.85 1089.54 713.39C1066.14 718.246 1039.95 712.078 1016.83 707.717C1014.63 706.946 1011.89 705.632 1010.25 703.935C1004.59 698.089 1016.11 653.691 1017.75 643.858C1018.57 638.966 1018.99 634.288 1018.84 629.331C1016.69 625.417 1013.66 622.128 1011.65 618.104Z"/>
	<path fill="#AB0629" d="M1018.84 629.331C1019.96 630.11 1021.07 630.903 1022.22 631.651C1032.32 638.243 1047.06 656.056 1055.99 665.031C1062.82 671.897 1070.63 677.75 1077.55 684.534C1083.1 689.971 1087.82 696.265 1093.37 701.647C1094.54 702.776 1095.28 703.566 1096.94 703.736C1096.36 705.539 1095.75 706.88 1094.68 708.448C1093.1 710.339 1091.46 711.85 1089.54 713.39C1066.14 718.246 1039.95 712.078 1016.83 707.717C1014.63 706.946 1011.89 705.632 1010.25 703.935C1004.59 698.089 1016.11 653.691 1017.75 643.858C1018.57 638.966 1018.99 634.288 1018.84 629.331Z"/>
	<path fill="#1A414A" d="M540.563 461.461L540.793 462.436C542.253 468.491 543.867 474.317 544.832 480.516C548.197 502.129 547.701 524.784 547.973 546.574C548.087 555.772 548.685 564.983 549.096 574.174Q552.39 635.769 556.866 697.288C557.452 705.838 557.355 714.469 557.431 723.036C557.462 726.564 557.103 730.628 557.695 734.088L532.83 730.212C522.071 729.401 510.422 728.54 499.87 726.351C488.352 724.527 476.622 723.415 465.042 721.952C466.421 711.803 469.937 701.532 472.732 691.673C478.391 671.716 484.514 651.874 490.355 631.967C501.587 593.694 510.279 554.67 524.668 517.335C528.905 504.206 533.4 491.134 536.891 477.785Q538.799 469.639 540.563 461.461Z"/>
	<path fill="#476C61" d="M536.891 477.785C537.661 479.359 537.98 480.55 537.946 482.316C537.796 490.179 536.444 498.258 535.877 506.136C534.983 518.548 534.699 530.986 534.309 543.422C533.216 578.344 533.408 613.594 533.897 648.543C534.133 665.416 534.043 682.132 533.813 699.004C533.673 709.34 533.885 719.927 532.83 730.212C522.071 729.401 510.422 728.54 499.87 726.351L500.832 726.041C501.952 723.714 507.215 682.826 508.297 675.644C511.831 652.181 516.44 628.876 519.2 605.278C521.354 586.866 521.586 568.28 523.351 549.841C524.546 537.358 527.91 524.34 527.556 511.818C526.98 513.469 526.475 515.11 525.368 516.494C525.14 516.779 524.901 517.055 524.668 517.335C528.905 504.206 533.4 491.134 536.891 477.785Z"/>
	<path fill="#345D5F" d="M524.668 517.335C524.901 517.055 525.14 516.779 525.368 516.494C526.475 515.11 526.98 513.469 527.556 511.818C527.91 524.34 524.546 537.358 523.351 549.841C521.586 568.28 521.354 586.866 519.2 605.278C516.44 628.876 511.831 652.181 508.297 675.644C507.215 682.826 501.952 723.714 500.832 726.041L499.87 726.351C488.352 724.527 476.622 723.415 465.042 721.952C466.421 711.803 469.937 701.532 472.732 691.673C478.391 671.716 484.514 651.874 490.355 631.967C501.587 593.694 510.279 554.67 524.668 517.335Z"/>
	<defs>
		<linearGradient id="gradient_4" gradientUnits="userSpaceOnUse" x1="769.47485" y1="622.4527" x2="680.80188" y2="612.65454">
			<stop offset="0" stop-color="#214651"/>
			<stop offset="1" stop-color="#436862"/>
		</linearGradient>
	</defs>
	<path fill="url(#gradient_4)" d="M742.298 477.825C743.274 475.584 744.051 473.699 745.785 471.923L747.032 471.509C747.42 471.889 747.236 471.618 747.293 472.457L747.715 472.399L798.705 650.191C805.577 679.554 816.172 708.291 824.362 737.347C826.061 743.376 829.441 749.741 830.189 755.91C819.504 757.08 808.907 758.758 798.246 760.096C785.13 761.742 772.14 763.077 759.164 765.695C752.995 766.892 746.176 768.162 739.873 767.625C732.131 766.966 724.318 763.571 716.744 761.726Q691.835 755.702 666.643 750.996C666.931 737.769 670.184 724.179 671.881 711.037C672.727 704.49 672.428 697.941 673 691.389C673.841 681.763 675.723 673.54 673.919 663.807C675.785 659.791 676.142 653.478 676.998 649.078C678.777 639.936 680.64 630.568 683.201 621.609C688.842 601.879 695.274 582.264 701.904 562.847C705.385 552.65 708.598 542.136 712.848 532.247C718.53 519.026 726.182 507.338 733.285 494.922C736.481 489.336 738.935 483.295 742.298 477.825Z"/>
	<path fill="#052D3C" d="M742.298 477.825C743.274 475.584 744.051 473.699 745.785 471.923L747.032 471.509C747.42 471.889 747.236 471.618 747.293 472.457L747.715 472.399L798.705 650.191C805.577 679.554 816.172 708.291 824.362 737.347C826.061 743.376 829.441 749.741 830.189 755.91C819.504 757.08 808.907 758.758 798.246 760.096C785.13 761.742 772.14 763.077 759.164 765.695C758.656 765.664 757.607 765.625 757.141 765.477C753.739 764.4 754.286 748.828 754.167 745.65C753.11 717.474 750.176 689.43 749.118 661.247C748.127 634.849 748.185 608.42 747.713 582.012Q746.937 550.441 745.616 518.887C745.352 511.999 746.732 484.91 744.352 480.491C743.625 479.14 743.726 479.648 744.016 478.297C745.955 478.526 745.138 479.677 746.731 480.262C747.525 479.266 747.855 478.501 747.927 477.205C748.024 475.463 747.552 474.065 746.384 472.761C744.755 473.637 743.989 476.216 743.154 477.861L742.298 477.825Z"/>
	<defs>
		<linearGradient id="gradient_5" gradientUnits="userSpaceOnUse" x1="606.53131" y1="1138.9843" x2="598.87244" y2="820.40729">
			<stop offset="0" stop-color="#A2B06C"/>
			<stop offset="1" stop-color="#FFEC6A"/>
		</linearGradient>
	</defs>
	<path fill="url(#gradient_5)" d="M1100.65 658.284C1110.45 662.834 1117.01 671.198 1125.94 676.896C1135.41 684.95 1147.58 692.533 1158.77 697.943C1163.72 701.017 1170.52 703.074 1174.5 707.29C1177.06 710.007 1178.25 713.617 1181.02 716.225L1187.03 714.77C1190.1 714.271 1192.9 713.068 1195.75 711.863C1198.51 713.198 1201.02 713.771 1204 714.307L1204 794.692L1204 801.885L1204 938.568L1204 956.883L1204 973.708L1204 987.017L1204 1126.1L1204 1162.2L1204 1204L1162.6 1204L1073 1204L1045.65 1204L1041.57 1204L1035.74 1204L1033.66 1204L719.86 1204L151.823 1204L128.615 1204L84.6743 1204L41.4766 1204L0 1204L0 1162.12L0 1018.06L0 1004.01L0 998.471L0 985.8L0 946.506L0 895.208L0 892.674L0 835.733L0 794.792L0 765.787L0 729.36L0 680.478C8.56534 680.374 65.5843 686.585 66.8744 685.807C78.9196 685.857 90.9555 687.829 102.929 687.777C110.092 688.101 117.473 689.531 124.581 689.494C141.123 690.334 157.676 692.435 174.177 693.941C181.166 695.648 198.312 695.768 206.811 696.584C223.867 697.719 240.839 700.705 257.943 701.924C262.218 702.229 267.129 703.031 271.362 702.721L272.101 702.762C275.296 704.85 289.727 705.34 294.463 705.938C323.164 707.576 351.759 712.465 380.473 714.573C394.28 715.724 408.091 716.648 421.873 718.1C436.157 719.604 450.672 721.787 465.042 721.952C476.622 723.415 488.352 724.527 499.87 726.351C510.422 728.54 522.071 729.401 532.83 730.212L557.695 734.088C578.481 736.717 599.012 740.697 619.755 743.394C622.16 743.898 624.561 744.11 627.002 744.342C640.138 746.858 653.597 748.246 666.643 750.996Q691.835 755.702 716.744 761.726C724.318 763.571 732.131 766.966 739.873 767.625C746.176 768.162 752.995 766.892 759.164 765.695C772.14 763.077 785.13 761.742 798.246 760.096C808.907 758.758 819.504 757.08 830.189 755.91C836.953 755.813 844.267 754.12 851.006 753.137Q867.452 750.718 883.973 748.873C898.593 748.232 913.751 745.219 928.285 743.18C951.802 739.88 975.183 736.934 998.771 734.231C1004.56 733.568 1017.69 730.876 1022.88 731.913C1023.33 730.676 1023.66 729.272 1023.67 727.952C1023.72 721.84 1021.23 712.011 1016.83 707.717C1039.95 712.078 1066.14 718.246 1089.54 713.39C1091.46 711.85 1093.1 710.339 1094.68 708.448C1095.75 706.88 1096.36 705.539 1096.94 703.736C1097.06 699.165 1096 694.495 1097.48 690.102C1099.11 688.652 1099.81 688.966 1101.94 688.897C1101.91 687.491 1102.33 686.337 1102.76 685.023C1103.52 679.655 1104.88 673.574 1104.35 668.144C1103.95 664.123 1102.76 662.213 1099.64 659.752L1100.65 658.284ZM0 895.208L0 946.506L0 985.8L0 998.471L0 1004.01L0 1018.06L0 1162.12L0 1204L41.4766 1204L84.6743 1204L128.615 1204L151.823 1204L719.86 1204L1033.66 1204L1035.74 1204L1041.57 1204L1045.65 1204L1073 1204L1162.6 1204L1204 1204L1204 1162.2L1204 1126.1C1184.81 1122.26 1165.81 1117.57 1146.67 1113.47L904.298 1060.6C870.659 1053.37 837.143 1045.75 803.346 1039.24Q722.161 1023.62 640.509 1010.65Q516.317 992.864 391.555 979.654Q296.826 968.728 201.804 960.735C164.919 957.476 127.841 953.739 90.8717 951.771C84.0504 950.16 75.8845 950.366 68.8257 949.853C51.583 948.6 33.9863 946.549 16.7024 947.294C14.6559 944.592 12.5203 941.936 11.3255 938.725C7.05367 927.245 11.9401 912.603 16.7724 902.031L26.2911 902.291C26.2322 901.592 26.319 902.018 25.8202 901.073C21.9895 900.625 18.2287 900.234 14.6442 901.906C9.67436 899.845 4.84522 897.541 0 895.208Z"/>
	<path fill="#03204C" d="M1004.07 967.274C994.3 962.812 960.872 946.051 956.299 937.498C956.751 934.983 961.573 931.187 963.349 928.82C966.158 925.079 968.363 920.838 970.636 916.755C971.613 917.431 971.939 917.908 973.154 917.95C972.235 922.411 969.957 926.486 968.441 930.759C975.346 939.39 1012.95 959.859 1013.68 965.579C1013.31 967.053 1012.9 968.186 1012.19 969.548C1009.35 969.291 1006.73 968.211 1004.07 967.274Z"/>
	<path fill="#03204C" d="M0 892.674C0.237254 892.418 0.482966 892.17 0.711762 891.906C7.86351 883.668 4.67533 865.843 24.3704 863.181C30.3278 862.375 35.3975 864.222 40.0686 867.87C44.74 871.518 48.8549 876.288 50.8304 881.916C50.7104 883.702 50.1914 884.693 49.3542 886.234C49.6693 886.136 49.9832 886.034 50.2995 885.94C53.3707 885.027 58.864 884.044 61.8166 885.739C63.1543 886.506 63.1452 886.924 63.5542 888.322C63.0606 889.964 63.1678 890.51 61.534 891.288C56.9054 893.493 47.6356 892.276 42.4544 892.058C40.4103 893.314 38.3448 894.509 36.4829 896.03C37.1911 898.363 37.8433 900.732 38.6385 903.037C34.5095 902.875 30.4057 902.679 26.2911 902.291C26.2322 901.592 26.319 902.018 25.8202 901.073C21.9895 900.625 18.2287 900.234 14.6442 901.906C9.67436 899.845 4.84522 897.541 0 895.208L0 892.674Z"/>
	<path fill="#F3E172" d="M0 794.792C25.6017 799.025 51.3885 802.39 77.0022 806.589C89.3478 808.613 103.191 812.481 115.222 813.621C118.416 813.923 121.882 814.009 124.722 812.325C154.013 822.279 184.976 830.556 214.874 838.53C227.043 841.775 239.138 845.988 251.442 848.624C256.21 849.609 260.813 851.357 265.412 852.932C264.912 853.014 264.41 853.079 263.912 853.17C258.78 854.106 253.956 852.828 248.856 853.442C242.273 854.236 235.756 855.914 229.138 856.395C223.314 856.819 217.416 855.218 211.562 855.143C200.657 855.002 190.105 856.291 179.122 855.728C174.605 855.497 170.281 853.916 165.892 853.744C162.172 853.599 158.017 855.137 154.439 854.68C152.345 854.412 150.641 852.566 148.572 852.124C146.142 851.604 143.304 851.83 140.79 851.465C135.081 850.635 129.457 849.306 123.766 848.468C115.943 847.316 107.965 847.197 100.2 846.067C95.1755 845.335 90.2699 843.743 85.2587 842.909C81.6272 842.304 77.8958 842.388 74.2312 842.057C69.0236 841.587 63.8543 840.693 58.6456 840.232C50.6273 839.523 42.5315 840.259 34.4948 839.557C27.608 838.954 21.0701 836.957 14.2678 835.97C10.4216 835.412 6.6763 835.717 2.83138 835.523C1.79645 835.47 1.01583 835.495 0 835.733L0 794.792Z"/>
	<path fill="#476C61" d="M1004.07 967.274C1006.73 968.211 1009.35 969.291 1012.19 969.548L1012.08 970.406C1023.54 973.334 1038.52 972.153 1050.42 972.268L1133.68 972.342L1135.84 976.043C1138.99 978.872 1157.22 976.96 1162.69 977.348C1161.48 977.488 1160.31 977.617 1159.12 977.895C1165.78 978.569 1184.58 979.046 1190.1 975.771C1192.49 976.083 1195.45 976.336 1197.56 975.01C1198.71 974.282 1198.58 973.141 1198.85 971.873C1199.08 972.613 1199.06 973.484 1199.86 973.773C1201.13 974.227 1202.69 973.863 1204 973.708L1204 987.017L1132.57 996.9C1109.18 1000.35 924.992 1030.29 913.604 1020.87C911.819 1019.39 910.891 1017.16 910.879 1014.87C910.872 1013.33 911.402 1011.95 912.63 1010.98C913.719 1010.11 915.097 1009.71 916.434 1009.43C920.457 1008.57 924.688 1008.68 928.767 1008.04C940.079 1006.27 952.197 1002.98 963.651 1002.86C963.862 1002.47 963.967 1001.66 964.068 1001.22C961.533 991.893 958.816 981.131 953.447 973.039C963.73 970.137 975.267 969.343 985.938 969.006C990.753 968.854 995.863 969.088 1000.63 968.461C1001.96 968.286 1002.9 967.916 1004.07 967.274Z"/>
	<path fill="#7A8C5E" d="M1004.07 967.274C1006.73 968.211 1009.35 969.291 1012.19 969.548L1012.08 970.406C1023.54 973.334 1038.52 972.153 1050.42 972.268L1133.68 972.342L1135.84 976.043C1138.99 978.872 1157.22 976.96 1162.69 977.348C1161.48 977.488 1160.31 977.617 1159.12 977.895C1158.08 978.606 1158.1 978.334 1157.76 979.659C1141.89 980.481 1126.05 984.871 1110.19 986.699C1094.75 988.476 1079.24 989.229 1063.79 990.719C1055.21 991.546 1046.75 993.123 1038.2 994.176C1029.11 995.296 1019.93 995.72 1010.81 996.876C1000.32 998.207 971.837 1003.65 963.651 1002.86C963.862 1002.47 963.967 1001.66 964.068 1001.22C961.533 991.893 958.816 981.131 953.447 973.039C963.73 970.137 975.267 969.343 985.938 969.006C990.753 968.854 995.863 969.088 1000.63 968.461C1001.96 968.286 1002.9 967.916 1004.07 967.274Z"/>
	<path fill="#F3E172" d="M951.404 815.761C960.416 816.261 987.381 810.869 997.403 809.045C992.881 827.113 983.282 850.759 976.217 868.356C974.759 868.943 974.888 868.942 974.247 870.419C972.61 874.189 972.073 879.553 969.6 882.73L969.04 882.208C969.012 880.811 968.97 879.425 969.03 878.029L967.818 877.354L967.758 876.692C966.547 875.488 965.963 874.323 964.145 874.343C957.947 874.412 951.67 876.553 945.328 876.695C940.021 876.814 934.772 876.83 929.48 876.353C925.676 876.011 921.974 875.228 918.131 875.313C902.852 875.649 887.735 877.641 872.385 877.746C858.692 877.84 845.95 873.721 832.361 878.292C828.488 879.595 823.096 877.469 818.999 877.586L773.029 878.569C768.062 878.705 764.5 882.351 759.307 881.229C754.863 880.269 748.112 881.838 743.879 883.395C739.466 885.018 733.173 883.41 728.423 883.875C721.44 884.559 714.761 887.514 707.854 888.59C701.199 889.627 681.56 890.473 676.887 892.509C672.194 894.554 665.719 893.456 660.573 894.214C657.036 894.735 653.677 896.309 650.178 896.681C645.733 897.152 641.225 896.636 636.755 897.113C628.411 898.001 618.406 901.567 610.185 903.031C605.715 903.827 600.902 902.802 596.371 903.226C588.866 903.928 581.512 906.096 573.973 906.846C568.712 907.37 563.725 905.821 558.509 905.798C553.512 905.777 548.413 907.009 543.428 907.454C537.725 907.963 531.962 907.748 526.262 908.285C521.604 908.724 517.898 911.688 513.308 912.273C505.025 913.327 502.401 911.332 492.869 913.952C492.041 914.179 491.563 914.008 490.742 913.921C487.663 913.594 468.078 918.649 462.983 919.451C458.229 920.2 453.388 919.954 448.602 920.3C443.859 920.644 439.201 921.613 434.432 921.717C429.183 921.832 379.483 921.762 376.77 920.692C375.974 920.377 375.165 918.41 374.421 918.108C372.474 917.316 352.41 915.107 349.264 914.969L349.141 915.574L348.745 914.705C346.57 913.384 343.368 910.803 340.839 910.65L339.515 909.492C338.653 909.987 339.003 909.617 338.609 910.722C337.248 911.129 336.158 911.244 334.807 910.605C334.293 910.362 334.2 910.227 333.84 909.878C338.012 908.279 343.253 908.517 347.692 907.939C356.46 906.797 400.877 902.294 405.962 898.388C423.914 897.43 442.296 893.885 460.084 891.243C501.14 885.145 541.992 877.876 582.972 871.289Q681.949 855.57 781.124 841.168C801.838 838.015 822.445 834.104 843.144 830.842Q897.2 822.767 951.404 815.761Z"/>
	<path fill="#052D3C" d="M1100.65 658.284C1110.45 662.834 1117.01 671.198 1125.94 676.896C1135.41 684.95 1147.58 692.533 1158.77 697.943C1163.72 701.017 1170.52 703.074 1174.5 707.29C1177.06 710.007 1178.25 713.617 1181.02 716.225L1187.03 714.77C1190.1 714.271 1192.9 713.068 1195.75 711.863C1198.51 713.198 1201.02 713.771 1204 714.307L1204 794.692L1204 801.885L1204 938.568L1204 956.883L1204 973.708C1202.69 973.863 1201.13 974.227 1199.86 973.773C1199.06 973.484 1199.08 972.613 1198.85 971.873C1198.58 973.141 1198.71 974.282 1197.56 975.01C1195.45 976.336 1192.49 976.083 1190.1 975.771C1184.58 979.046 1165.78 978.569 1159.12 977.895C1160.31 977.617 1161.48 977.488 1162.69 977.348C1157.22 976.96 1138.99 978.872 1135.84 976.043L1133.68 972.342L1050.42 972.268C1038.52 972.153 1023.54 973.334 1012.08 970.406L1012.19 969.548C1012.9 968.186 1013.31 967.053 1013.68 965.579C1012.95 959.859 975.346 939.39 968.441 930.759C969.957 926.486 972.235 922.411 973.154 917.95C971.939 917.908 971.613 917.431 970.636 916.755C968.393 914.993 964.102 913.918 961.332 912.869C964.832 897.514 972.054 883.432 976.217 868.356C983.282 850.759 992.881 827.113 997.403 809.045C1001.04 798.031 1005.14 787.168 1008.71 776.132C1013.48 761.399 1017.69 746.514 1022.88 731.913C1023.33 730.676 1023.66 729.272 1023.67 727.952C1023.72 721.84 1021.23 712.011 1016.83 707.717C1039.95 712.078 1066.14 718.246 1089.54 713.39C1091.46 711.85 1093.1 710.339 1094.68 708.448C1095.75 706.88 1096.36 705.539 1096.94 703.736C1097.06 699.165 1096 694.495 1097.48 690.102C1099.11 688.652 1099.81 688.966 1101.94 688.897C1101.91 687.491 1102.33 686.337 1102.76 685.023C1103.52 679.655 1104.88 673.574 1104.35 668.144C1103.95 664.123 1102.76 662.213 1099.64 659.752L1100.65 658.284Z"/>
	<path fill="#BFCA87" d="M1094.71 717.753L1095.08 717.025C1097.59 719.61 1099.27 723.542 1101.12 726.683C1115.1 750.546 1124.23 775.869 1133.17 801.944C1128.16 801.756 1122.35 800.906 1117.4 801.591C1116.45 802.646 1116.76 802.017 1116.54 803.514C1113.62 786.184 1108.19 768.557 1103.17 751.7C1099.76 740.284 1095.95 729.706 1094.71 717.753Z"/>
	<path fill="#F3E172" d="M1116.54 803.514C1116.76 802.017 1116.45 802.646 1117.4 801.591C1122.35 800.906 1128.16 801.756 1133.17 801.944C1145 838.434 1160.39 873.477 1172.56 909.795C1174.9 916.796 1178.8 923.488 1180.48 930.664C1181.33 934.248 1181.32 937.316 1179.62 940.653C1178.74 942.388 1177.66 943.773 1176.24 945.08C1176.77 946.139 1176.73 946.303 1177.76 947.008C1171.57 955.235 1161.98 962.027 1152.23 965.503C1149.31 967.115 1146.27 968.633 1143.51 970.51C1143.36 972.575 1143.17 974.07 1142.29 975.957C1140.14 975.893 1137.99 975.981 1135.84 976.043L1133.68 972.342L1133.34 969.408C1130.53 966.178 1125.13 941.101 1125.09 936.173L1126.28 935.84C1132.63 933.507 1138.46 930.852 1144.23 927.292C1142.71 913.298 1137.97 899.208 1134.78 885.464C1128.48 858.249 1122.31 830.843 1116.54 803.514Z"/>
	<path fill="#032E4B" d="M1125.09 936.173L1126.28 935.84C1131.89 937.12 1139.63 948.413 1142.6 953.209C1142.94 953.765 1143.24 954.35 1143.54 954.927C1150.4 952.355 1157.31 949.691 1164.37 947.724C1168.28 946.637 1172.4 946.246 1176.24 945.08C1176.77 946.139 1176.73 946.303 1177.76 947.008C1171.57 955.235 1161.98 962.027 1152.23 965.503C1149.31 967.115 1146.27 968.633 1143.51 970.51C1143.36 972.575 1143.17 974.07 1142.29 975.957C1140.14 975.893 1137.99 975.981 1135.84 976.043L1133.68 972.342L1133.34 969.408C1130.53 966.178 1125.13 941.101 1125.09 936.173Z"/>
	<path fill="#16191D" d="M1133.34 969.408C1133.98 969.058 1133.62 969.2 1134.53 969.035C1140.36 967.984 1146.36 965.858 1152.23 965.503C1149.31 967.115 1146.27 968.633 1143.51 970.51C1143.36 972.575 1143.17 974.07 1142.29 975.957C1140.14 975.893 1137.99 975.981 1135.84 976.043L1133.68 972.342L1133.34 969.408Z"/>
	<path fill="#F3E172" d="M1137.7 801.319C1148.81 800.424 1160.06 801.212 1171.19 801.536Q1187.59 801.927 1204 801.885L1204 938.568L1204 956.883L1204 973.708C1202.69 973.863 1201.13 974.227 1199.86 973.773C1199.06 973.484 1199.08 972.613 1198.85 971.873C1198.58 973.141 1198.71 974.282 1197.56 975.01C1195.45 976.336 1192.49 976.083 1190.1 975.771C1184.58 979.046 1165.78 978.569 1159.12 977.895C1160.31 977.617 1161.48 977.488 1162.69 977.348C1157.22 976.96 1138.99 978.872 1135.84 976.043C1137.99 975.981 1140.14 975.893 1142.29 975.957C1143.17 974.07 1143.36 972.575 1143.51 970.51C1146.27 968.633 1149.31 967.115 1152.23 965.503C1161.98 962.027 1171.57 955.235 1177.76 947.008C1179.85 944.744 1182.31 942.384 1183.85 939.712C1185.2 937.372 1185.63 935.005 1185.17 932.35C1183.52 922.779 1177.64 910.407 1174.23 900.996C1170.64 891.053 1167.52 880.921 1163.69 871.064C1154.73 847.921 1144.85 825.126 1137.7 801.319Z"/>
	<path fill="#032E4B" d="M1204 938.568L1204 956.883L1204 973.708C1202.69 973.863 1201.13 974.227 1199.86 973.773C1199.06 973.484 1199.08 972.613 1198.85 971.873C1198.58 973.141 1198.71 974.282 1197.56 975.01C1195.45 976.336 1192.49 976.083 1190.1 975.771L1191.37 971.301C1194.67 960.335 1198.39 948.558 1204 938.568Z"/>
	<path fill="#BFCA87" d="M1198.85 971.873C1200.05 966.64 1201.1 961.489 1204 956.883L1204 973.708C1202.69 973.863 1201.13 974.227 1199.86 973.773C1199.06 973.484 1199.08 972.613 1198.85 971.873Z"/>
	<defs>
		<linearGradient id="gradient_6" gradientUnits="userSpaceOnUse" x1="1144.2419" y1="971.22437" x2="1183.0099" y2="975.84473">
			<stop offset="0" stop-color="#254C4C"/>
			<stop offset="1" stop-color="#507E62"/>
		</linearGradient>
	</defs>
	<path fill="url(#gradient_6)" d="M1142.29 975.957C1143.17 974.07 1143.36 972.575 1143.51 970.51C1148.82 972.668 1176.97 971.079 1184.66 971.122Q1188.01 971.236 1191.37 971.301L1190.1 975.771C1184.58 979.046 1165.78 978.569 1159.12 977.895C1160.31 977.617 1161.48 977.488 1162.69 977.348C1157.22 976.96 1138.99 978.872 1135.84 976.043C1137.99 975.981 1140.14 975.893 1142.29 975.957Z"/>
	<path fill="#5B7F5C" d="M1191.37 971.301L1190.1 975.771C1184.58 979.046 1165.78 978.569 1159.12 977.895C1160.31 977.617 1161.48 977.488 1162.69 977.348C1157.22 976.96 1138.99 978.872 1135.84 976.043C1137.99 975.981 1140.14 975.893 1142.29 975.957C1153.61 976.495 1170.63 977.263 1181.26 974.446C1182.96 973.998 1184.65 973.726 1185.58 972.18L1184.66 971.122Q1188.01 971.236 1191.37 971.301Z"/>
	<path fill="#032E4B" d="M1094.71 717.753C1095.95 729.706 1099.76 740.284 1103.17 751.7C1108.19 768.557 1113.62 786.184 1116.54 803.514C1122.31 830.843 1128.48 858.249 1134.78 885.464C1137.97 899.208 1142.71 913.298 1144.23 927.292C1138.46 930.852 1132.63 933.507 1126.28 935.84L1125.09 936.173C1120.95 937.974 1116.38 939.164 1112.07 940.511C1111.89 939.762 1111.7 939.021 1111.51 938.274C1108.43 926.132 1101.87 912.823 1097.78 900.536Q1085.15 862.673 1071.59 825.136C1068.3 815.776 1065.96 805.655 1062.05 796.593C1063.33 789.246 1070.84 776.794 1074.01 769.175C1079.64 755.622 1084.9 741.926 1090.58 728.385C1092.05 724.88 1093.07 721.171 1094.71 717.753Z"/>
	<path fill="#F3E172" d="M1100.65 658.284C1110.45 662.834 1117.01 671.198 1125.94 676.896C1135.41 684.95 1147.58 692.533 1158.77 697.943C1163.72 701.017 1170.52 703.074 1174.5 707.29C1177.06 710.007 1178.25 713.617 1181.02 716.225L1187.03 714.77C1190.1 714.271 1192.9 713.068 1195.75 711.863C1198.51 713.198 1201.02 713.771 1204 714.307L1204 794.692L1204 801.885Q1187.59 801.927 1171.19 801.536C1160.06 801.212 1148.81 800.424 1137.7 801.319C1135.39 793.085 1132.1 785.074 1129.2 777.025C1125.98 769.663 1123.39 762.041 1120.35 754.607C1117.07 746.609 1113.3 738.891 1109.48 731.137L1108.17 728.125C1105.52 721.744 1101.63 715.529 1098.34 709.434C1097.13 708.996 1095.94 708.728 1094.68 708.448C1095.75 706.88 1096.36 705.539 1096.94 703.736C1097.06 699.165 1096 694.495 1097.48 690.102C1099.11 688.652 1099.81 688.966 1101.94 688.897C1101.91 687.491 1102.33 686.337 1102.76 685.023C1103.52 679.655 1104.88 673.574 1104.35 668.144C1103.95 664.123 1102.76 662.213 1099.64 659.752L1100.65 658.284Z"/>
	<path fill="#BFCA87" d="M1129.2 777.025C1129.41 777.214 1129.63 777.397 1129.83 777.593C1132.94 780.586 1135.95 791.73 1137.25 796.235C1140.29 793.3 1148.17 793.254 1152.4 793.341C1165.08 793.603 1193.6 798.347 1204 794.692L1204 801.885Q1187.59 801.927 1171.19 801.536C1160.06 801.212 1148.81 800.424 1137.7 801.319C1135.39 793.085 1132.1 785.074 1129.2 777.025Z"/>
	<path fill="#93BEA3" d="M1100.65 658.284C1110.45 662.834 1117.01 671.198 1125.94 676.896C1135.41 684.95 1147.58 692.533 1158.77 697.943C1163.72 701.017 1170.52 703.074 1174.5 707.29C1177.06 710.007 1178.25 713.617 1181.02 716.225C1170.62 721.873 1155.43 722.321 1143.75 724.385C1136.77 725.616 1129.85 727.149 1122.88 728.421C1118.85 729.158 1113.17 729.463 1109.48 731.137L1108.17 728.125C1105.52 721.744 1101.63 715.529 1098.34 709.434C1097.13 708.996 1095.94 708.728 1094.68 708.448C1095.75 706.88 1096.36 705.539 1096.94 703.736C1097.06 699.165 1096 694.495 1097.48 690.102C1099.11 688.652 1099.81 688.966 1101.94 688.897C1101.91 687.491 1102.33 686.337 1102.76 685.023C1103.52 679.655 1104.88 673.574 1104.35 668.144C1103.95 664.123 1102.76 662.213 1099.64 659.752L1100.65 658.284Z"/>
	<path fill="#AB0629" d="M1102.76 685.023C1108.39 689.802 1120.59 698.431 1127.05 701.668C1127.2 701.744 1127.35 701.83 1127.49 701.911C1125.45 702.581 1123.43 703.513 1121.44 704.314C1117.97 701.332 1113.01 693.091 1108.55 692.379L1108.14 693.782C1106.47 690.945 1105.04 690.01 1101.94 688.897C1101.91 687.491 1102.33 686.337 1102.76 685.023Z"/>
	<path fill="#F3E172" d="M1096.94 703.736C1097.06 699.165 1096 694.495 1097.48 690.102C1099.11 688.652 1099.81 688.966 1101.94 688.897C1105.04 690.01 1106.47 690.945 1108.14 693.782L1108.55 692.379C1113.01 693.091 1117.97 701.332 1121.44 704.314C1123.43 703.513 1125.45 702.581 1127.49 701.911C1129.57 702.227 1129.69 702.105 1131.07 703.643C1131.39 705.983 1130.2 707.82 1128.82 709.614C1123.03 717.129 1114.83 721.665 1108.17 728.125C1105.52 721.744 1101.63 715.529 1098.34 709.434C1097.13 708.996 1095.94 708.728 1094.68 708.448C1095.75 706.88 1096.36 705.539 1096.94 703.736Z"/>
	<path fill="#16191D" d="M1096.94 703.736C1097.06 699.165 1096 694.495 1097.48 690.102C1099.11 688.652 1099.81 688.966 1101.94 688.897C1105.04 690.01 1106.47 690.945 1108.14 693.782C1107.36 700.157 1098.02 703.978 1098.34 709.434C1097.13 708.996 1095.94 708.728 1094.68 708.448C1095.75 706.88 1096.36 705.539 1096.94 703.736Z"/>
	<path fill="#F3E172" d="M1062.05 796.593C1065.96 805.655 1068.3 815.776 1071.59 825.136Q1085.15 862.673 1097.78 900.536C1101.87 912.823 1108.43 926.132 1111.51 938.274C1111.7 939.021 1111.89 939.762 1112.07 940.511C1116.38 939.164 1120.95 937.974 1125.09 936.173C1125.13 941.101 1130.53 966.178 1133.34 969.408L1133.68 972.342L1050.42 972.268C1038.52 972.153 1023.54 973.334 1012.08 970.406L1012.19 969.548C1012.9 968.186 1013.31 967.053 1013.68 965.579C1012.95 959.859 975.346 939.39 968.441 930.759C969.957 926.486 972.235 922.411 973.154 917.95C973.719 917.619 974.288 917.551 974.922 917.412C981.547 919.041 987.345 923.993 992.81 927.907C995.242 925.984 996.923 924.224 998.588 921.607C1004.6 912.156 1009.09 901.193 1014.22 891.199C1023.83 872.438 1033.78 853.937 1042.78 834.86C1048.58 822.566 1053.82 807.44 1062.05 796.593Z"/>
	<defs>
		<linearGradient id="gradient_7" gradientUnits="userSpaceOnUse" x1="483.064" y1="903.33655" x2="516.43176" y2="662.62598">
			<stop offset="0" stop-color="#61835C"/>
			<stop offset="1" stop-color="#BBC88D"/>
		</linearGradient>
	</defs>
	<path fill="url(#gradient_7)" d="M0 680.478C8.56534 680.374 65.5843 686.585 66.8744 685.807C78.9196 685.857 90.9555 687.829 102.929 687.777C110.092 688.101 117.473 689.531 124.581 689.494C141.123 690.334 157.676 692.435 174.177 693.941C181.166 695.648 198.312 695.768 206.811 696.584C223.867 697.719 240.839 700.705 257.943 701.924C262.218 702.229 267.129 703.031 271.362 702.721L272.101 702.762C275.296 704.85 289.727 705.34 294.463 705.938C323.164 707.576 351.759 712.465 380.473 714.573C394.28 715.724 408.091 716.648 421.873 718.1C436.157 719.604 450.672 721.787 465.042 721.952C476.622 723.415 488.352 724.527 499.87 726.351C510.422 728.54 522.071 729.401 532.83 730.212L557.695 734.088C578.481 736.717 599.012 740.697 619.755 743.394C622.16 743.898 624.561 744.11 627.002 744.342C640.138 746.858 653.597 748.246 666.643 750.996Q691.835 755.702 716.744 761.726C724.318 763.571 732.131 766.966 739.873 767.625C746.176 768.162 752.995 766.892 759.164 765.695C772.14 763.077 785.13 761.742 798.246 760.096C808.907 758.758 819.504 757.08 830.189 755.91C836.953 755.813 844.267 754.12 851.006 753.137Q867.452 750.718 883.973 748.873C898.593 748.232 913.751 745.219 928.285 743.18C951.802 739.88 975.183 736.934 998.771 734.231C1004.56 733.568 1017.69 730.876 1022.88 731.913C1017.69 746.514 1013.48 761.399 1008.71 776.132C1005.14 787.168 1001.04 798.031 997.403 809.045C987.381 810.869 960.416 816.261 951.404 815.761Q897.2 822.766 843.144 830.842C822.445 834.104 801.838 838.015 781.124 841.168Q681.949 855.571 582.972 871.289C541.992 877.876 501.14 885.145 460.084 891.243C442.296 893.885 423.914 897.43 405.962 898.388C389.622 899.182 385.162 896.213 370.933 889.189C349.399 880.775 327.69 873.277 305.698 866.111C292.279 861.738 278.655 857.822 265.412 852.932C260.813 851.357 256.21 849.609 251.442 848.624C239.138 845.988 227.043 841.775 214.874 838.53C184.976 830.556 154.013 822.279 124.722 812.325C121.882 814.009 118.416 813.923 115.222 813.621C103.191 812.481 89.3478 808.613 77.0022 806.589C51.3885 802.39 25.6017 799.025 0 794.792L0 765.787L0 729.36L0 680.478Z"/>
	<path fill="#5B7F5C" d="M490.816 800.503C491.785 799.48 491.775 799.395 493.224 799.317C495.659 799.187 498.5 799.741 500.861 799.107C504.278 798.191 506.547 795.509 510.289 795.146C516.911 794.504 523.394 795.29 529.976 794.855C540.64 794.152 551.372 791.508 561.983 790.103C565.196 789.678 568.54 789.727 571.7 789.224C574.575 788.765 577.391 787.939 580.287 787.587C584.436 787.084 588.401 787.292 592.512 786.376C594.85 785.855 597.3 786.613 599.629 786.235C600.72 786.058 601.606 785.437 602.677 785.195C605.375 784.588 608.558 784.947 611.346 784.58C618.639 783.622 625.353 781.978 632.81 782.264C633.169 782.277 633.528 782.274 633.887 782.279L493.27 800.662L490.816 800.503Z"/>
	<path fill="#5B7F5C" d="M370.933 889.189C375.924 885.759 387.554 889.776 393.807 889.45C399.737 889.141 404.726 885.423 410.305 883.875C413.544 882.976 417.869 882.995 421.228 882.861C426.297 882.66 431.379 883.131 436.447 882.917C443.796 882.607 451.126 881.357 458.487 881.419C463.228 881.459 467.909 882.418 472.656 882.497C477.15 882.571 481.637 881.916 486.134 881.913C489.555 881.91 493.525 882.41 496.822 881.563C497.868 881.294 498.378 881.176 499.475 881.308C502.966 881.728 504.447 881.052 507.599 879.608C512.624 877.305 523.704 879.763 529.758 879.212C535.974 878.647 541.649 874.032 547.995 873.232C555.379 872.301 563.086 873.495 570.445 872.494C573.853 872.031 576.926 870.048 580.287 869.553C583.379 869.097 587.579 870.528 590.486 869.194C596.332 866.514 601.732 865.072 608.207 865.096C610.73 865.105 613.419 865.553 615.919 865.142C619.843 864.495 623.383 862.1 627.346 861.31C633.914 860.002 640.904 860.389 647.573 859.841C651.926 859.483 656.273 858.592 660.62 858.342C664.255 858.134 667.263 856.261 670.741 855.514C672.921 855.046 675.224 855.045 677.433 854.622C691.878 851.861 706.26 848.471 720.781 846.073C728.646 844.773 736.424 846.871 744.294 845.669C751.349 844.591 758.134 842.132 765.169 841.039C772.586 839.886 780.23 840.369 787.646 839.24C805.89 836.461 824.06 832.76 842.308 829.878Q880.238 824.133 918.295 819.305C925.007 818.402 945.941 813.993 951.404 815.761Q897.2 822.766 843.144 830.842C822.445 834.104 801.838 838.015 781.124 841.168Q681.949 855.571 582.972 871.289C541.992 877.876 501.14 885.145 460.084 891.243C442.296 893.885 423.914 897.43 405.962 898.388C389.622 899.182 385.162 896.213 370.933 889.189Z"/>
	<defs>
		<linearGradient id="gradient_8" gradientUnits="userSpaceOnUse" x1="226.01399" y1="842.36139" x2="242.80537" y2="754.65143">
			<stop offset="0" stop-color="#345552"/>
			<stop offset="1" stop-color="#668662"/>
		</linearGradient>
	</defs>
	<path fill="url(#gradient_8)" d="M0 729.36C0.25104 729.369 0.501963 729.382 0.753119 729.387C2.30407 729.416 1.21156 729.411 2.64042 729.294C5.87913 729.029 9.91264 729.317 13.1039 729.927C19.4479 731.141 25.3133 734.27 31.5853 735.698C36.1291 736.732 43.5003 735.48 47.1064 738.494C47.4165 738.753 47.7019 739.041 47.9976 739.317C49.2068 740.444 50.1299 741.267 51.8865 741.278C59.7577 741.323 57.3512 735.751 67.2444 743.463C70.3045 745.848 75.9512 745.604 79.7171 746.874C84.3929 748.452 108.243 750.334 109.023 750.895C114.365 754.742 123.83 757.491 130.329 759.054C138.288 760.967 146.908 760.683 154.965 762.265C158.282 762.917 161.287 764.998 164.573 765.799C167.981 766.629 171.991 766.437 175.541 767.054C185.229 768.735 195.523 770.825 205.053 773.181C207.73 773.843 209.798 775.587 212.322 776.545C214.854 777.506 217.813 777.867 220.476 778.406C223.162 778.95 233.897 781.969 235.667 781.725C238.889 781.281 240.205 780.657 243.416 781.659C249.45 783.541 261.595 786.113 267.953 786.848C274.445 787.599 281.04 787.497 287.529 788.266Q340.475 795.04 393.821 796.861C406.244 797.168 418.731 796.445 431.143 797.007C437.397 797.29 443.587 798.374 449.811 798.98C455.356 799.521 460.909 799.378 466.464 799.641C474.625 800.027 482.632 800.929 490.816 800.503L493.27 800.662C475.191 803.732 456.999 806.195 438.904 809.157C419.01 812.415 399.224 816.49 379.414 820.208C361.721 823.528 343.994 826.358 326.362 830.083C309.341 833.679 292.22 837.571 275.378 841.933C267.358 844.011 259.474 846.618 251.442 848.624C239.138 845.988 227.043 841.775 214.874 838.53C184.976 830.556 154.013 822.279 124.722 812.325C121.882 814.009 118.416 813.923 115.222 813.621C103.191 812.481 89.3478 808.613 77.0022 806.589C51.3885 802.39 25.6017 799.025 0 794.792L0 765.787L0 729.36Z"/>
	<path fill="#BFCA87" d="M0 765.787C14.5327 770.565 28.6635 776.272 43.0347 781.477C70.4739 791.414 97.6288 801.441 124.722 812.325C121.882 814.009 118.416 813.923 115.222 813.621C103.191 812.481 89.3478 808.613 77.0022 806.589C51.3885 802.39 25.6017 799.025 0 794.792L0 765.787Z"/>
	<defs>
		<linearGradient id="gradient_9" gradientUnits="userSpaceOnUse" x1="601.29694" y1="1205.0913" x2="602.11566" y2="952.90985">
			<stop offset="0" stop-color="#32524C"/>
			<stop offset="1" stop-color="#97AE74"/>
		</linearGradient>
	</defs>
	<path fill="url(#gradient_9)" d="M0 895.208C4.84522 897.541 9.67436 899.845 14.6442 901.906C18.2287 900.234 21.9895 900.625 25.8202 901.073C26.319 902.018 26.2322 901.592 26.2911 902.291L16.7724 902.031C11.9401 912.603 7.05367 927.245 11.3255 938.725C12.5203 941.936 14.6559 944.592 16.7024 947.294C33.9863 946.549 51.583 948.6 68.8257 949.853C75.8845 950.366 84.0504 950.16 90.8717 951.771C127.841 953.739 164.919 957.476 201.804 960.735Q296.826 968.728 391.555 979.654Q516.317 992.864 640.509 1010.65Q722.161 1023.62 803.346 1039.24C837.143 1045.75 870.659 1053.37 904.298 1060.6L1146.67 1113.47C1165.81 1117.57 1184.81 1122.26 1204 1126.1L1204 1162.2L1204 1204L1162.6 1204L1073 1204L1045.65 1204L1041.57 1204L1035.74 1204L1033.66 1204L719.86 1204L151.823 1204L128.615 1204L84.6743 1204L41.4766 1204L0 1204L0 1162.12L0 1018.06L0 1004.01L0 998.471L0 985.8L0 946.506L0 895.208ZM0 1162.12L0 1204L41.4766 1204C31.1261 1201.34 21.7736 1197.89 14.2318 1189.99C6.09273 1184.45 2.17737 1171.09 0 1162.12ZM1204 1162.2C1200.53 1176.81 1194.5 1188.8 1181.31 1196.87C1175.5 1200.42 1169.17 1202.37 1162.6 1204L1204 1204L1204 1162.2Z"/>
	<path fill="#345D5F" d="M1035.74 1204C1036.36 1202.82 1036.9 1202.76 1038.03 1202.12C1039.74 1202.25 1040.02 1202.16 1041.2 1203.49C1041.34 1203.65 1041.44 1203.83 1041.57 1204L1035.74 1204Z"/>
	<path fill="#345D5F" d="M128.615 1204C129.571 1202.48 129.466 1202.41 131.27 1202.06C136.362 1201.06 141.395 1200.98 146.356 1202.54C148.194 1203.12 150.166 1203.08 151.823 1204L128.615 1204Z"/>
	<path fill="#345D5F" d="M1045.65 1204C1046.99 1202.72 1047.43 1202.38 1049.32 1202.53C1050.08 1202.59 1050.52 1202.69 1051.23 1202.82L1050.64 1202.01L1052.59 1203.14C1053.44 1201.67 1053.49 1201.09 1055.11 1200.47C1060.38 1201.73 1065.51 1203.23 1070.92 1203.53C1072.19 1203.6 1071.69 1203.53 1073 1204L1045.65 1204Z"/>
	<path fill="#476C61" d="M0 985.8C7.55604 986.752 31.3026 990.291 37.5713 986.938L42.436 989.858C28.7738 993.901 14.1122 996.544 0 998.471L0 985.8Z"/>
	<path fill="#345D5F" d="M14.2318 1189.99C15.5515 1190.48 16.5979 1191.21 17.9609 1190.79C19.0174 1190.46 19.9993 1190.31 21.0896 1190.17C28.1768 1194.13 28.0535 1198.32 36.7419 1196.86C44.9846 1195.48 54.9638 1198.67 63.2966 1199.3C66.5436 1199.55 70.2872 1199.1 73.4239 1199.61C77.0545 1200.2 80.4836 1201.95 84.0776 1202.74L84.6743 1204L41.4766 1204C31.1261 1201.34 21.7736 1197.89 14.2318 1189.99Z"/>
	<path fill="#476C61" d="M0 1004.01C13.5752 1008.69 27.7314 1011.94 41.6849 1015.32C47.5497 1016.74 73.1506 1022.15 76.9662 1024.56L76.536 1023.96L77.0069 1024.51L76.9018 1024.07C71.9828 1027.31 41.4427 1023.88 34.1367 1022.87C22.8991 1021.32 11.3405 1018.24 0 1018.06L0 1004.01Z"/>
	<path fill="#BFCA87" d="M16.7024 947.294C33.9863 946.549 51.583 948.6 68.8257 949.853C75.8845 950.366 84.0504 950.16 90.8717 951.771C85.6974 954.114 78.9798 950.029 73.879 951.516C72.7489 951.846 71.1044 953.893 70.2488 954.72C59.5812 965.028 55.4662 965.828 41.3019 966.573C39.1269 966.688 35.6706 967.93 33.6624 967.371C33.2412 967.254 32.5339 966.787 32.2296 966.606L30.7527 966.756C32.185 969.697 34.7359 972.062 36.5205 974.828L35.9698 975.509C30.356 971.083 21.1718 954.077 16.7024 947.294Z"/>
	<path fill="#032E4B" d="M0 895.208C4.84522 897.541 9.67436 899.845 14.6442 901.906C18.2287 900.234 21.9895 900.625 25.8202 901.073C26.319 902.018 26.2322 901.592 26.2911 902.291L16.7724 902.031C11.9401 912.603 7.05367 927.245 11.3255 938.725C12.5203 941.936 14.6559 944.592 16.7024 947.294C21.1718 954.077 30.356 971.083 35.9698 975.509C38.1082 978.253 40.3119 980.425 43.0054 982.609C43.1962 982.555 43.388 982.505 43.5778 982.448C47.6913 981.212 56.0995 975.16 59.8884 976.089C60.2301 976.826 60.5935 977.114 60.297 977.949C58.6678 982.536 49.0579 987.367 44.7126 989.036Q43.586 989.479 42.436 989.858L37.5713 986.938C31.3026 990.291 7.55604 986.752 0 985.8L0 946.506L0 895.208Z"/>
	<path fill="#92B375" d="M0 946.506C8.43885 954.562 16.1605 963.766 23.8735 972.525C28.1832 977.419 32.4649 982.854 37.5713 986.938C31.3026 990.291 7.55604 986.752 0 985.8L0 946.506Z"/>
	<path fill="#345D5F" d="M719.86 1204C721.142 1202.24 721.556 1202.04 723.69 1201.66C725.155 1201.4 726.213 1201.52 727.55 1200.71C728.519 1200.94 730.056 1201.62 730.908 1201.14C736.963 1197.72 749.67 1195.54 756.413 1197.15C760.55 1198.13 763.083 1198.97 766.862 1196.72C767.173 1196.53 768.55 1195.59 768.789 1195.55C770.905 1195.25 771.965 1197.99 774.603 1196.75C777.399 1195.44 778.379 1193.05 782.015 1193.92C784.232 1194.44 786.426 1195.55 788.679 1195.87C794.169 1196.65 800.618 1194.62 806.328 1194.99C810.196 1195.24 813.739 1196.81 817.641 1196.64C823.298 1196.39 829.162 1195.74 834.739 1194.77C836.569 1194.45 838.351 1193.45 840.199 1193.45C841.974 1193.44 844.166 1194.38 845.889 1194.84C846.823 1195.09 847.342 1195.02 848.207 1194.56C849.15 1194.07 849.961 1193.33 851.002 1193C851.931 1192.71 867.891 1191.67 869.239 1191.81C871.833 1192.1 872.762 1193.45 875.81 1193.2C880.904 1192.78 885.625 1193.58 890.65 1193.49C893.619 1193.44 897.839 1192.45 900.635 1192.89C901.299 1193 902.425 1194.1 902.932 1194.54C908.513 1194.56 913.935 1193.37 919.566 1193.83C923.695 1194.17 927.464 1196.2 931.636 1196.29C934.915 1196.36 940.421 1193.57 945.604 1193.74C954.116 1194.02 966.393 1196.81 974.141 1195.99C976.37 1195.76 984.919 1196.94 987.082 1197.66C992.557 1199.49 1001.24 1199.13 1007 1199.08L1009.38 1196.81C1010.55 1197.16 1010.33 1197.67 1011.1 1197.99C1013.84 1199.13 1022.38 1199.19 1026.3 1200.25C1028.91 1200.95 1030.87 1202.91 1033.45 1203.31L1033.66 1204L719.86 1204Z"/>
</svg>
