<?xml version="1.0" ?><svg id="Layer_1" style="enable-background:new 0 0 66 66;" version="1.1" viewBox="0 0 66 66" xml:space="preserve" xmlns="http://www.w3.org/2000/svg" xmlns:xlink="http://www.w3.org/1999/xlink"><g><path d="M32.8,8c0,0.2-0.1,0.3-0.1,0.5c-0.7,2.4-3.3,5.3-8.2,9.3C24.4,18,24.3,18,24.2,18c-0.1,0.1-0.3,0.1-0.4,0.1   c-0.2,0-0.4-0.1-0.6-0.2c-6.2-5-9-8.8-8.5-11.7c0-0.1,0-0.1,0-0.2c0.4-2.5,2.6-4.4,5.2-4.4c1.5,0,2.9,0.6,3.9,1.7   c1-1.1,2.4-1.7,3.9-1.7c2.6,0,4.8,1.9,5.2,4.4c0,0.1,0.1,0.2,0.1,0.3C32.9,6.9,32.9,7.5,32.8,8z"/><path d="M34,43.6c0.1-0.2,0.1-0.3,0.1-0.5V29.9c0-0.9-0.3-1.7-0.9-2.3c-0.9-0.9-2.4-1.2-3.5-0.7v-1.1c0-0.9-0.3-1.7-0.9-2.3   c-1-1-2.5-1.2-3.6-0.7c-0.1-0.5-0.4-1-0.8-1.4c-0.6-0.6-1.4-1-2.3-1c-1.5,0-2.8,1.1-3.1,2.5c-0.4-0.2-0.9-0.3-1.3-0.3   c-1.8,0-3.2,1.4-3.2,3.2v13.4l-4.1-2.9c-1.2-1.1-3.3-0.9-4.4,0.3c-0.6,0.6-0.8,1.4-0.8,2.2c0,0.8,0.4,1.6,1,2.2l8.2,7.1L12,63.9   c0,0.3,0,0.6,0.2,0.8c0.2,0.2,0.5,0.3,0.8,0.3h21.8c0.3,0,0.6-0.1,0.8-0.4c0.2-0.2,0.3-0.5,0.2-0.8l-3.5-17.4L34,43.6z M33.6,63   H14.1l2.1-15c0-0.3-0.1-0.7-0.3-0.9l-8.6-7.5C7.1,39.4,7,39.1,7,38.8c0-0.3,0.1-0.6,0.3-0.8c0.4-0.4,1.1-0.5,1.6-0.1   c0,0,0.1,0,0.1,0.1l5.7,4.1c0,0,0,0,0,0c0,0,0,0,0,0l2.1,1.3c0.2,0.1,0.3,0.1,0.5,0.1c0.3,0,0.7-0.2,0.9-0.5   c0.3-0.5,0.1-1.1-0.3-1.4l-1.7-1V25.9c0-0.7,0.6-1.2,1.2-1.2c0.4,0,0.7,0.2,0.9,0.4c0.2,0.2,0.4,0.5,0.4,0.9v10.7c0,0.6,0.4,1,1,1   c0.6,0,1-0.4,1-1V25.9v-2.2c0-0.7,0.6-1.2,1.2-1.2c0.3,0,0.6,0.1,0.9,0.4c0.2,0.2,0.4,0.5,0.4,0.9v2.1c0,0,0,0,0,0.1c0,0,0,0,0,0.1   v10.7c0,0.6,0.4,1,1,1c0.6,0,1-0.4,1-1V25.9c0,0,0,0,0-0.1c0,0,0,0,0-0.1c0-0.7,0.6-1.2,1.2-1.2c0.4,0,0.7,0.2,0.9,0.4   c0.2,0.2,0.4,0.5,0.4,0.9v4.1v6.7c0,0.6,0.4,1,1,1c0.6,0,1-0.4,1-1v-6.7c0-0.7,0.6-1.2,1.2-1.2c0.3,0,0.6,0.1,0.9,0.4   c0.2,0.2,0.4,0.5,0.4,0.9v12.9l-1.7,2.9c-0.1,0.2-0.2,0.5-0.1,0.7L33.6,63z"/><path d="M61,63.9c0,0.3-0.1,0.5-0.3,0.8C60.6,64.9,60.3,65,60,65H38.2c-0.3,0-0.5-0.1-0.7-0.3c-0.2-0.2-0.3-0.5-0.3-0.7l2.2-35.2   l-8.2-7.2c-0.6-0.6-1-1.3-1-2.2c0-0.8,0.2-1.6,0.8-2.2c1.1-1.2,3.1-1.3,4.4-0.3l4.1,3V6.5c0-1.8,1.5-3.2,3.2-3.2   c0.5,0,0.9,0.1,1.3,0.3C44.3,2.1,45.6,1,47.2,1c0.9,0,1.7,0.4,2.3,1c0.4,0.4,0.7,0.9,0.8,1.4C51.4,2.8,53,3.1,53.9,4   c0.6,0.6,0.9,1.4,0.9,2.3v1.1C56,7,57.5,7.2,58.4,8.1c0.6,0.6,0.9,1.4,0.9,2.3v13.2c0,0.2-0.1,0.4-0.1,0.5L57.5,27L61,63.9z"/></g></svg>